<?xml version="1.0" encoding="UTF-8"?><svg width="180mm" height="90mm" viewBox="-900 -450 1800 900"><g id="AGBBall" viewBox="-900 -450 1800 900"><rect height="450" width="1800" x="-900" y="-450" fill="rgb(187,231,244)"></rect><rect height="450" width="1800" x="-900" y="0" fill="rgb(117,64,58)"></rect><line stroke="black" stroke-width="2" y1="-225" y2="-225" x1="-480" x2="-420"></line><line stroke="black" stroke-width="2" y1="-200" y2="-200" x1="-630" x2="-270"></line><line stroke="black" stroke-width="2" y1="-175" y2="-175" x1="-480" x2="-420"></line><line stroke="black" stroke-width="2" y1="-150" y2="-150" x1="-630" x2="-270"></line><line stroke="black" stroke-width="2" y1="-125" y2="-125" x1="-480" x2="-420"></line><line stroke="black" stroke-width="2" y1="-100" y2="-100" x1="-630" x2="-270"></line><line stroke="black" stroke-width="2" y1="-75" y2="-75" x1="-480" x2="-420"></line><line stroke="black" stroke-width="2" y1="-50" y2="-50" x1="-510" x2="-390"></line><line stroke="black" stroke-width="2" y1="-25" y2="-25" x1="-465" x2="-435"></line><line stroke="white" stroke-width="2" y1="25" y2="25" x1="-465" x2="-435"></line><line stroke="white" stroke-width="2" y1="50" y2="50" x1="-510" x2="-390"></line><line stroke="white" stroke-width="2" y1="75" y2="75" x1="-480" x2="-420"></line><line stroke="white" stroke-width="2" y1="100" y2="100" x1="-630" x2="-270"></line><line stroke="white" stroke-width="2" y1="125" y2="125" x1="-480" x2="-420"></line><line stroke="white" stroke-width="2" y1="150" y2="150" x1="-630" x2="-270"></line><line stroke="white" stroke-width="2" y1="175" y2="175" x1="-480" x2="-420"></line><line stroke="white" stroke-width="2" y1="200" y2="200" x1="-630" x2="-270"></line><line stroke="white" stroke-width="2" y1="225" y2="225" x1="-480" x2="-420"></line><line stroke="rgb(117,64,58)" stroke-width="10" y1="50" y2="50" x1="-480" x2="-420"></line><line stroke="rgb(117,64,58)" stroke-width="10" y1="100" y2="100" x1="-480" x2="-420"></line><line stroke="rgb(117,64,58)" stroke-width="10" y1="150" y2="150" x1="-480" x2="-420"></line><line stroke="rgb(187,231,244)" stroke-width="10" y1="-50" y2="-50" x1="-480" x2="-420"></line><line stroke="rgb(187,231,244)" stroke-width="10" y1="-100" y2="-100" x1="-480" x2="-420"></line><line stroke="rgb(187,231,244)" stroke-width="10" y1="-150" y2="-150" x1="-480" x2="-420"></line><text fill="white" font-family="lenya69" font-size="40" x="-450" y="50" stroke="white" dominant-baseline="middle" text-anchor="middle" font-weight="bold">10</text><text fill="white" font-family="lenya69" font-size="50" x="-450" y="100" stroke="white" dominant-baseline="middle" text-anchor="middle" font-weight="bold">20</text><text fill="white" font-family="lenya69" font-size="60" x="-450" y="150" stroke="white" dominant-baseline="middle" text-anchor="middle" font-weight="bold">30</text><text fill="black" font-family="lenya69" font-size="40" x="-450" y="-50" stroke="black" dominant-baseline="middle" text-anchor="middle" font-weight="bold">10</text><text fill="black" font-family="lenya69" font-size="50" x="-450" y="-100" stroke="black" dominant-baseline="middle" text-anchor="middle" font-weight="bold">20</text><text fill="black" font-family="lenya69" font-size="60" x="-450" y="-150" stroke="black" dominant-baseline="middle" text-anchor="middle" font-weight="bold">30</text><line stroke="white" stroke-width="2" y1="0" y2="0" x1="-900" x2="900"></line><line stroke="white" stroke-width="2" y1="-450" y2="450" x1="-450" x2="-450"></line></g></svg>