<?xml version="1.0" encoding="UTF-8"?><svg width="90mm" height="90mm" viewBox="-450 -450 900 900"><g id="AGBShield" viewBox="-450 -450 900 900"><g transform="translate(450,0)"></g><circle r="380" fill-opacity="0" x="0" y="0" stroke="rgb(20,10,10)" stroke-opacity="1" stroke-width="140"></circle><rect height="40" width="8" x="0" y="0" fill="white" stroke="white" transform="translate(-4,-350) rotate(0,4,350)"></rect><rect height="40" width="8" x="0" y="0" fill="white" stroke="white" transform="translate(-4,-350) rotate(90,4,350)"></rect><rect height="40" width="8" x="0" y="0" fill="white" stroke="white" transform="translate(-4,-350) rotate(120,4,350)"></rect><rect height="40" width="8" x="0" y="0" fill="white" stroke="white" transform="translate(-4,-350) rotate(240,4,350)"></rect><rect height="40" width="8" x="0" y="0" fill="white" stroke="white" transform="translate(-4,-350) rotate(270,4,350)"></rect><rect height="20" width="5" x="0" y="0" fill="white" stroke="white" transform="translate(-2.5,-330) rotate(130,2.5,330)"></rect><rect height="20" width="5" x="0" y="0" fill="white" stroke="white" transform="translate(-2.5,-330) rotate(140,2.5,330)"></rect><rect height="20" width="5" x="0" y="0" fill="white" stroke="white" transform="translate(-2.5,-330) rotate(160,2.5,330)"></rect><rect height="20" width="5" x="0" y="0" fill="white" stroke="white" transform="translate(-2.5,-330) rotate(170,2.5,330)"></rect><rect height="20" width="5" x="0" y="0" fill="white" stroke="white" transform="translate(-2.5,-330) rotate(190,2.5,330)"></rect><rect height="20" width="5" x="0" y="0" fill="white" stroke="white" transform="translate(-2.5,-330) rotate(200,2.5,330)"></rect><rect height="20" width="5" x="0" y="0" fill="white" stroke="white" transform="translate(-2.5,-330) rotate(220,2.5,330)"></rect><rect height="20" width="5" x="0" y="0" fill="white" stroke="white" transform="translate(-2.5,-330) rotate(230,2.5,330)"></rect><rect height="20" width="8" x="0" y="0" fill="white" stroke="white" transform="translate(-4,-330) rotate(150,4,330)"></rect><rect height="20" width="8" x="0" y="0" fill="white" stroke="white" transform="translate(-4,-330) rotate(210,4,330)"></rect><text fill="white" font-family="lenya69" font-size="60" x="0" y="0" stroke="white" dominant-baseline="middle" text-anchor="middle" transform="translate(171.3571204168501,322.27587139350834)" font-weight="bold">30</text><text fill="white" font-family="lenya69" font-size="60" x="0" y="0" stroke="white" dominant-baseline="middle" text-anchor="middle" transform="translate(-171.35712041685002,322.2758713935084)" font-weight="bold">30</text><path d="M 0 0 L 25 43.30127018922193 L -25 43.30127018922193 Z" fill="white" transform="translate(0,310)"></path></g></svg>