<?xml version="1.0" encoding="UTF-8"?><svg width="383.24mm" height="201.96mm" viewBox="0 0 3832.4 2019.6000000000001"><g id="CentralPanel" viewBox="0 0 3832.4 2019.6000000000001"><image height="2019.6000000000001" href="/static/media/center_upper_texture.dd97eb89a53d2af7f35c.jpg" width="3832.4" x="0" y="0"></image><g transform="translate(512.5,662.5)"></g><g name="vp"><circle r="400" fill="white" cy="1500" cx="2465" fill-opacity="1" name=""></circle></g><g transform="translate(1916.2,1009.8000000000001)"><rect height="660" width="1180" x="-1096.2" y="320.2" fill-opacity="1"></rect><g transform="translate(-948.7,402.7)"></g><g transform="translate(-948.7,567.7)"></g><g transform="translate(-948.7,732.7)"></g><g transform="translate(-948.7,897.7)"></g></g><rect height="495" width="590" x="3225" y="1500" fill-opacity="1"></rect><circle r="400" fill="white" cy="1500" cx="2465" fill-opacity="1"></circle><g transform="translate(2065,250)"><g><circle r="30" fill="red" cy="-370" cx="-370" fill-opacity="1" transform="translate(400,400)"></circle><circle r="30" fill="red" cy="-370" cx="370" fill-opacity="1" transform="translate(400,400)"></circle><circle r="30" fill="red" cy="370" cx="370" fill-opacity="1" transform="translate(400,400)"></circle><circle r="30" fill="red" cy="370" cx="-370" fill-opacity="1" transform="translate(400,400)"></circle></g></g><g transform="translate(3335,950)" name="rmi"></g><g transform="translate(553,1545)" name="stab_disp"><rect height="670" width="300" x="-150" y="-335"></rect></g><g transform="translate(205,1545)" name="stab_sig"><rect height="330" width="295" x="-147.5" y="-165"></rect></g><g transform="translate(205,1545)"><g transform="translate(0,-82.5)"></g><g transform="translate(0,82.5)"></g></g><g transform="translate(1487,750)"><g><circle r="50" fill="red" cy="-460" cx="-470" fill-opacity="1"></circle><circle r="50" fill="red" cy="-460" cx="470" fill-opacity="1"></circle><circle r="50" fill="red" cy="460" cx="470" fill-opacity="1"></circle><circle r="50" fill="red" cy="460" cx="-470" fill-opacity="1"></circle></g></g></g></svg>