<?xml version="1.0" encoding="UTF-8"?><svg width="160mm" height="160mm" viewBox="-800 -800 1600 1600"><g id="KPI" viewBox="-800 -800 1600 1600"><image height="1600" href="/static/media/kpi.0cc441c04f1420f4da6e.jpg" width="1600" x="-800" y="-800"></image><g transform="translate(-12,-145)"><g transform="translate(0,0) rotate(0,0,0)"><rect height="1600" width="3200" x="-1600" y="-1600" fill="rgb(28,161,254)" fill-opacity="1"></rect><rect height="1600" width="3200" x="-1600" y="0" fill="rgb(128,55,43)" fill-opacity="1"></rect><g><line stroke="white" stroke-width="5" y1="-316.9636963055246" y2="-316.9636963055246" x1="-30" x2="30"></line><text fill="white" font-family="lenya69" font-size="50" x="40" y="-316.9636963055246" stroke="white" dominant-baseline="central" textLength="50"></text><text fill="white" font-family="lenya69" font-size="50" x="-90" y="-316.9636963055246" stroke="white" dominant-baseline="central" textLength="50"></text></g><g><line stroke="white" stroke-width="5" y1="-256.51510749425154" y2="-256.51510749425154" x1="-150" x2="150"></line><text fill="white" font-family="lenya69" font-size="50" x="160" y="-256.51510749425154" stroke="white" dominant-baseline="central" textLength="50">20</text><text fill="white" font-family="lenya69" font-size="50" x="-210" y="-256.51510749425154" stroke="white" dominant-baseline="central" textLength="50">20</text></g><g><line stroke="white" stroke-width="5" y1="-194.11428382689056" y2="-194.11428382689056" x1="-30" x2="30"></line><text fill="white" font-family="lenya69" font-size="50" x="40" y="-194.11428382689056" stroke="white" dominant-baseline="central" textLength="50"></text><text fill="white" font-family="lenya69" font-size="50" x="-90" y="-194.11428382689056" stroke="white" dominant-baseline="central" textLength="50"></text></g><g><line stroke="white" stroke-width="5" y1="-130.23613325019775" y2="-130.23613325019775" x1="-80" x2="80"></line><text fill="white" font-family="lenya69" font-size="50" x="90" y="-130.23613325019775" stroke="white" dominant-baseline="central" textLength="50">10</text><text fill="white" font-family="lenya69" font-size="50" x="-140" y="-130.23613325019775" stroke="white" dominant-baseline="central" textLength="50">10</text></g><g><line stroke="white" stroke-width="5" y1="-97.89464416503868" y2="-97.89464416503868" x1="-20" x2="20"></line><text fill="white" font-family="lenya69" font-size="50" x="30" y="-97.89464416503868" stroke="white" dominant-baseline="central" textLength="50"></text><text fill="white" font-family="lenya69" font-size="50" x="-80" y="-97.89464416503868" stroke="white" dominant-baseline="central" textLength="50"></text></g><g><line stroke="white" stroke-width="5" y1="-65.36680706074362" y2="-65.36680706074362" x1="-40" x2="40"></line><text fill="white" font-family="lenya69" font-size="50" x="50" y="-65.36680706074362" stroke="white" dominant-baseline="central" textLength="50"></text><text fill="white" font-family="lenya69" font-size="50" x="-100" y="-65.36680706074362" stroke="white" dominant-baseline="central" textLength="50"></text></g><g><line stroke="white" stroke-width="5" y1="-32.714540524002" y2="-32.714540524002" x1="-20" x2="20"></line><text fill="white" font-family="lenya69" font-size="50" x="30" y="-32.714540524002" stroke="white" dominant-baseline="central" textLength="50"></text><text fill="white" font-family="lenya69" font-size="50" x="-80" y="-32.714540524002" stroke="white" dominant-baseline="central" textLength="50"></text></g><g><line stroke="white" stroke-width="5" y1="32.714540524002" y2="32.714540524002" x1="-20" x2="20"></line><text fill="white" font-family="lenya69" font-size="50" x="30" y="32.714540524002" stroke="white" dominant-baseline="central" textLength="50"></text><text fill="white" font-family="lenya69" font-size="50" x="-80" y="32.714540524002" stroke="white" dominant-baseline="central" textLength="50"></text></g><g><line stroke="white" stroke-width="5" y1="65.36680706074362" y2="65.36680706074362" x1="-40" x2="40"></line><text fill="white" font-family="lenya69" font-size="50" x="50" y="65.36680706074362" stroke="white" dominant-baseline="central" textLength="50"></text><text fill="white" font-family="lenya69" font-size="50" x="-100" y="65.36680706074362" stroke="white" dominant-baseline="central" textLength="50"></text></g><g><line stroke="white" stroke-width="5" y1="97.89464416503868" y2="97.89464416503868" x1="-20" x2="20"></line><text fill="white" font-family="lenya69" font-size="50" x="30" y="97.89464416503868" stroke="white" dominant-baseline="central" textLength="50"></text><text fill="white" font-family="lenya69" font-size="50" x="-80" y="97.89464416503868" stroke="white" dominant-baseline="central" textLength="50"></text></g><g><line stroke="white" stroke-width="5" y1="130.23613325019775" y2="130.23613325019775" x1="-80" x2="80"></line><text fill="white" font-family="lenya69" font-size="50" x="90" y="130.23613325019775" stroke="white" dominant-baseline="central" textLength="50">10</text><text fill="white" font-family="lenya69" font-size="50" x="-140" y="130.23613325019775" stroke="white" dominant-baseline="central" textLength="50">10</text></g><g><line stroke="white" stroke-width="5" y1="194.11428382689056" y2="194.11428382689056" x1="-30" x2="30"></line><text fill="white" font-family="lenya69" font-size="50" x="40" y="194.11428382689056" stroke="white" dominant-baseline="central" textLength="50"></text><text fill="white" font-family="lenya69" font-size="50" x="-90" y="194.11428382689056" stroke="white" dominant-baseline="central" textLength="50"></text></g><g><line stroke="white" stroke-width="5" y1="256.51510749425154" y2="256.51510749425154" x1="-150" x2="150"></line><text fill="white" font-family="lenya69" font-size="50" x="160" y="256.51510749425154" stroke="white" dominant-baseline="central" textLength="50">20</text><text fill="white" font-family="lenya69" font-size="50" x="-210" y="256.51510749425154" stroke="white" dominant-baseline="central" textLength="50">20</text></g><g><line stroke="white" stroke-width="5" y1="316.9636963055246" y2="316.9636963055246" x1="-30" x2="30"></line><text fill="white" font-family="lenya69" font-size="50" x="40" y="316.9636963055246" stroke="white" dominant-baseline="central" textLength="50"></text><text fill="white" font-family="lenya69" font-size="50" x="-90" y="316.9636963055246" stroke="white" dominant-baseline="central" textLength="50"></text></g></g></g><g transform="translate(-12,-145)"><g transform="rotate(0)"><path d="M 0 -420 l 15 30 l -15 30 l -15 -30 Z" fill="none" stroke-width="5" stroke="white"></path><path d="M 0 380 l -18 -50 l 36 0 Z" fill="white"></path></g></g><g transform="translate(-12,-145)"><circle r="20" fill="none" stroke-width="5" stroke="white" rx="0" ry="0"></circle><line stroke="red" stroke-width="5" y1="380" y2="425" x1="0" x2="0" transform="rotate(-60)" stroke-opacity="1"></line><line stroke="red" stroke-width="5" y1="380" y2="425" x1="0" x2="0" transform="rotate(-45)" stroke-opacity="1"></line><line stroke="yellow" stroke-width="5" y1="380" y2="425" x1="0" x2="0" transform="rotate(-30)" stroke-opacity="1"></line><line stroke="white" stroke-width="5" y1="380" y2="410" x1="0" x2="0" transform="rotate(-20)" stroke-opacity="1"></line><line stroke="white" stroke-width="5" y1="380" y2="410" x1="0" x2="0" transform="rotate(-10)" stroke-opacity="1"></line><line stroke="white" stroke-width="5" y1="380" y2="425" x1="0" x2="0" transform="rotate(0)" stroke-opacity="1"></line><line stroke="white" stroke-width="5" y1="380" y2="410" x1="0" x2="0" transform="rotate(10)" stroke-opacity="1"></line><line stroke="white" stroke-width="5" y1="380" y2="410" x1="0" x2="0" transform="rotate(20)" stroke-opacity="1"></line><line stroke="yellow" stroke-width="5" y1="380" y2="425" x1="0" x2="0" transform="rotate(30)" stroke-opacity="1"></line><line stroke="red" stroke-width="5" y1="380" y2="425" x1="0" x2="0" transform="rotate(45)" stroke-opacity="1"></line><line stroke="red" stroke-width="5" y1="380" y2="425" x1="0" x2="0" transform="rotate(60)" stroke-opacity="1"></line><path d="M -300 -5 l 210 0 l 0 40 l -10 0 l 0 -30 l -200 0 Z" fill="none" stroke-width="5" stroke="white"></path><path d="M 300 -5 l -210 0 l 0 40 l 10 0 l 0 -30 l 200 0 Z" fill="none" stroke-width="5" stroke="white"></path></g><path d="M -800 -800 l 0 1600 l 1600 0 l 0 -1600 Z M -377 -495 a 75 75 0 0 1 75 -75 l 580 0 a 75 75 0 0 1 75 75 l 0 700 a 75 75 0 0 1 -75 75 l -580 0 a 75 75 0 0 1 -75 -75 Z" fill="black" stroke-width="10" stroke="yellow" stroke-opacity="0"></path><g transform="translate(-12,-145)"><path d="M 0 -425 l -14.433756729740644112728719512549 -25 l 28.867513459481288225457439025098 0 Z" fill="none" stroke-width="5" stroke="white"></path><rect height="120" width="1090" x="-540" y="-600" fill="grey" fill-opacity="1"></rect><text fill="rgb(0,255,0)" font-family="lenya69" font-size="60" x="-555" y="-590" stroke="rgb(0,255,0)" dominant-baseline="hanging" text-anchor="end" stroke-width="2">AT</text><text fill="rgb(0,255,0)" font-family="lenya69" font-size="60" x="-490" y="-590" stroke="rgb(0,255,0)" dominant-baseline="hanging" text-anchor="start" stroke-width="2">ЧИСЛО M</text><text fill="rgb(0,255,0)" font-family="lenya69" font-size="60" x="-190" y="-590" stroke="rgb(0,255,0)" dominant-baseline="hanging" text-anchor="start" stroke-width="2">ГОР НАВ</text><text fill="rgb(0,255,0)" font-family="lenya69" font-size="60" x="200" y="-590" stroke="rgb(0,255,0)" dominant-baseline="hanging" text-anchor="start" stroke-width="2">ВЫСОТА</text><text fill="rgb(0,255,0)" font-family="lenya69" font-size="60" x="580" y="-590" stroke="rgb(0,255,0)" dominant-baseline="hanging" text-anchor="start" stroke-width="2">AП</text><line stroke="white" stroke-width="5" y1="-600" y2="-480" x1="-205" x2="-205"></line><line stroke="white" stroke-width="5" y1="-600" y2="-480" x1="180" x2="180"></line><g transform="translate(0,446)"><path d="M 0 -15 l 30 15 l -30 15 l -30 -15 Z" fill="rgb(255,0,255)" fill-opacity="1"></path></g><circle r="12" fill="none" cy="446" cx="-190" stroke-width="6" stroke="white"></circle><circle r="12" fill="none" cy="446" cx="-95" stroke-width="6" stroke="white"></circle><circle r="12" fill="none" cy="446" cx="95" stroke-width="6" stroke="white"></circle><circle r="12" fill="none" cy="446" cx="190" stroke-width="6" stroke="white"></circle><rect height="800" width="180" x="-600" y="-400" fill="grey" fill-opacity="1"></rect><g transform="translate(-420,0)"><text fill="yellow" font-family="lenya69" font-size="60" x="-80" y="0" dominant-baseline="central" text-anchor="end">0</text><text fill="yellow" font-family="lenya69" font-size="60" x="-80" y="-380.9523809523809" dominant-baseline="central" text-anchor="end">100</text><line stroke="yellow" stroke-width="5" y1="0" y2="0" x1="0" x2="-50"></line><line stroke="yellow" stroke-width="5" y1="-38.095238095238095" y2="-38.095238095238095" x1="0" x2="-30"></line><line stroke="yellow" stroke-width="5" y1="-76.19047619047619" y2="-76.19047619047619" x1="0" x2="-30"></line><line stroke="yellow" stroke-width="5" y1="-114.28571428571428" y2="-114.28571428571428" x1="0" x2="-30"></line><line stroke="yellow" stroke-width="5" y1="-152.38095238095238" y2="-152.38095238095238" x1="0" x2="-30"></line><line stroke="yellow" stroke-width="5" y1="-190.47619047619045" y2="-190.47619047619045" x1="0" x2="-50"></line><line stroke="yellow" stroke-width="5" y1="-228.57142857142856" y2="-228.57142857142856" x1="0" x2="-30"></line><line stroke="yellow" stroke-width="5" y1="-266.66666666666663" y2="-266.66666666666663" x1="0" x2="-30"></line><line stroke="yellow" stroke-width="5" y1="-304.76190476190476" y2="-304.76190476190476" x1="0" x2="-30"></line><line stroke="yellow" stroke-width="5" y1="-342.85714285714283" y2="-342.85714285714283" x1="0" x2="-30"></line><line stroke="yellow" stroke-width="5" y1="-380.9523809523809" y2="-380.9523809523809" x1="0" x2="-50"></line><line stroke="white" stroke-width="5" y1="-400" y2="-400"></line><rect height="50" width="180" x="-180" y="400"></rect><rect height="50" width="180" x="-180" y="-450"></rect><line stroke="yellow" stroke-width="5" y1="-400" y2="400"></line></g><path d="M -420 0 l -30 0 l -30 -40 l -140 0 l 0 80 l 140 0 l 30 -40" stroke-width="5" stroke="rgb(0,255,0)" fill-opacity="1"></path><text fill="rgb(128,128,255)" font-family="lenya69" font-size="100" x="-510" y="-410" text-anchor="middle">0.770</text><text fill="white" font-family="lenya69" font-size="100" x="-610" y="0" dominant-baseline="central" text-anchor="start">000</text><text fill="white" font-family="lenya69" font-size="60" x="-510" y="420" stroke="white" dominant-baseline="hanging" text-anchor="middle" textLength="150">0.000</text><rect height="60" width="180" x="-590" y="475" fill="rgb(0,0,128)"></rect><text fill="rgb(0,255,0)" font-family="lenya69" font-size="60" x="-570" y="480" stroke="rgb(0,255,0)" dominant-baseline="hanging" text-anchor="start" textLength="150">000kt</text><rect height="800" width="120" x="-755" y="-400" fill="grey"></rect><line stroke="white" stroke-width="5" y1="200" y2="200" x1="-635" x2="-680"></line><line stroke="white" stroke-width="5" y1="100" y2="100" x1="-635" x2="-680"></line><line stroke="white" stroke-width="5" y1="0" y2="0" x1="-635" x2="-680"></line><line stroke="white" stroke-width="5" y1="-100" y2="-100" x1="-635" x2="-680"></line><line stroke="red" stroke-width="5" y1="-200" y2="-200" x1="-635" x2="-680"></line><line stroke="red" stroke-width="5" y1="-300" y2="-300" x1="-635" x2="-680"></line><line stroke="red" stroke-width="5" y1="-400" y2="-400" x1="-635" x2="-680"></line><line stroke="red" stroke-width="5" y1="-200" y2="-200" x1="-635" x2="-615"></line><text fill="white" font-family="lenya69" font-size="60" x="-695" y="100" stroke="white" dominant-baseline="central" text-anchor="end" stroke-width="2">0</text><text fill="white" font-family="lenya69" font-size="60" x="-695" y="-100" stroke="white" dominant-baseline="central" text-anchor="end" stroke-width="2">10</text><text fill="red" font-family="lenya69" font-size="60" x="-695" y="-300" stroke="red" dominant-baseline="central" text-anchor="end" stroke-width="2">20</text><line stroke="white" stroke-width="5" y1="80" y2="80" x1="-635" x2="-655"></line><line stroke="white" stroke-width="5" y1="60" y2="60" x1="-635" x2="-655"></line><line stroke="white" stroke-width="5" y1="40" y2="40" x1="-635" x2="-655"></line><line stroke="white" stroke-width="5" y1="20" y2="20" x1="-635" x2="-655"></line><line stroke="white" stroke-width="5" y1="-20" y2="-20" x1="-635" x2="-655"></line><line stroke="white" stroke-width="5" y1="-40" y2="-40" x1="-635" x2="-655"></line><line stroke="white" stroke-width="5" y1="-60" y2="-60" x1="-635" x2="-655"></line><line stroke="white" stroke-width="5" y1="-80" y2="-80" x1="-635" x2="-655"></line><line stroke="white" stroke-width="5" y1="-120" y2="-120" x1="-635" x2="-655"></line><line stroke="white" stroke-width="5" y1="-140" y2="-140" x1="-635" x2="-655"></line><line stroke="white" stroke-width="5" y1="-160" y2="-160" x1="-635" x2="-655"></line><line stroke="white" stroke-width="5" y1="-180" y2="-180" x1="-635" x2="-655"></line><line stroke="red" stroke-width="5" y1="-220" y2="-220" x1="-635" x2="-655"></line><line stroke="red" stroke-width="5" y1="-240" y2="-240" x1="-635" x2="-655"></line><line stroke="red" stroke-width="5" y1="-260" y2="-260" x1="-635" x2="-655"></line><line stroke="red" stroke-width="5" y1="-280" y2="-280" x1="-635" x2="-655"></line><line stroke="red" stroke-width="5" y1="-402.5" y2="-196" x1="-635" x2="-635"></line><line stroke="white" stroke-width="5" y1="400" y2="-196" x1="-635" x2="-635"></line><g transform="translate(-655,100)"><path d="M 0 0 l -40 -20 l 0 40 Z" fill="rgb(0,255,0)"></path></g><rect height="800" width="210" x="420" y="-400" fill="grey" fill-opacity="1"></rect><path d="M 420 0 l 30 0 l 30 -40 l 220 0 l 0 80 l -220 0 l -30 -40" stroke-width="5" stroke="rgb(0,255,0)" fill-opacity="1"></path><text fill="white" font-family="lenya69" font-size="100" x="475" y="0" dominant-baseline="central">10090</text><rect height="50" width="330" x="-165" y="475" fill="grey" fill-opacity="1"></rect><line stroke="white" stroke-width="5" y1="475" y2="525" x1="-165" x2="-165"></line><line stroke="white" stroke-width="5" y1="475" y2="525" x1="165" x2="165"></line><circle r="20" fill="rgb(0,255,0)" cy="500" cx="0" stroke-width="6"></circle><line stroke="white" stroke-width="5" y1="425" y2="525" x1="0" x2="0"></line><g transform="translate(0,1300)"><line stroke="white" stroke-width="5" y1="-600" y2="-640" x1="0" x2="0" transform="rotate(-30)"></line><line stroke="white" stroke-width="5" y1="-600" y2="-640" x1="0" x2="0" transform="rotate(30)"></line><g transform="rotate(-40)"><circle r="600" fill="grey" cy="0" fill-opacity="1" stroke="white" stroke-width="5"></circle><g transform="rotate(0)"><line stroke="white" stroke-width="5" y1="-600" y2="-560" x1="0" x2="0"></line><text fill="white" font-family="lenya69" font-size="60" x="0" y="-560" stroke="white" dominant-baseline="hanging" text-anchor="middle">00</text></g><g transform="rotate(5)"><line stroke="white" stroke-width="5" y1="-600" y2="-575" x1="0" x2="0"></line><text fill="white" font-family="lenya69" font-size="60" x="0" y="-560" stroke="white" dominant-baseline="hanging" text-anchor="middle"></text></g><g transform="rotate(10)"><line stroke="white" stroke-width="5" y1="-600" y2="-560" x1="0" x2="0"></line><text fill="white" font-family="lenya69" font-size="60" x="0" y="-560" stroke="white" dominant-baseline="hanging" text-anchor="middle"></text></g><g transform="rotate(15)"><line stroke="white" stroke-width="5" y1="-600" y2="-575" x1="0" x2="0"></line><text fill="white" font-family="lenya69" font-size="60" x="0" y="-560" stroke="white" dominant-baseline="hanging" text-anchor="middle"></text></g><g transform="rotate(20)"><line stroke="white" stroke-width="5" y1="-600" y2="-560" x1="0" x2="0"></line><text fill="white" font-family="lenya69" font-size="60" x="0" y="-560" stroke="white" dominant-baseline="hanging" text-anchor="middle"></text></g><g transform="rotate(25)"><line stroke="white" stroke-width="5" y1="-600" y2="-575" x1="0" x2="0"></line><text fill="white" font-family="lenya69" font-size="60" x="0" y="-560" stroke="white" dominant-baseline="hanging" text-anchor="middle"></text></g><g transform="rotate(30)"><line stroke="white" stroke-width="5" y1="-600" y2="-560" x1="0" x2="0"></line><text fill="white" font-family="lenya69" font-size="60" x="0" y="-560" stroke="white" dominant-baseline="hanging" text-anchor="middle">03</text></g><g transform="rotate(35)"><line stroke="white" stroke-width="5" y1="-600" y2="-575" x1="0" x2="0"></line><text fill="white" font-family="lenya69" font-size="60" x="0" y="-560" stroke="white" dominant-baseline="hanging" text-anchor="middle"></text></g><g transform="rotate(40)"><line stroke="white" stroke-width="5" y1="-600" y2="-560" x1="0" x2="0"></line><text fill="white" font-family="lenya69" font-size="60" x="0" y="-560" stroke="white" dominant-baseline="hanging" text-anchor="middle"></text></g><g transform="rotate(45)"><line stroke="white" stroke-width="5" y1="-600" y2="-575" x1="0" x2="0"></line><text fill="white" font-family="lenya69" font-size="60" x="0" y="-560" stroke="white" dominant-baseline="hanging" text-anchor="middle"></text></g><g transform="rotate(50)"><line stroke="white" stroke-width="5" y1="-600" y2="-560" x1="0" x2="0"></line><text fill="white" font-family="lenya69" font-size="60" x="0" y="-560" stroke="white" dominant-baseline="hanging" text-anchor="middle"></text></g><g transform="rotate(55)"><line stroke="white" stroke-width="5" y1="-600" y2="-575" x1="0" x2="0"></line><text fill="white" font-family="lenya69" font-size="60" x="0" y="-560" stroke="white" dominant-baseline="hanging" text-anchor="middle"></text></g><g transform="rotate(60)"><line stroke="white" stroke-width="5" y1="-600" y2="-560" x1="0" x2="0"></line><text fill="white" font-family="lenya69" font-size="60" x="0" y="-560" stroke="white" dominant-baseline="hanging" text-anchor="middle">06</text></g><g transform="rotate(65)"><line stroke="white" stroke-width="5" y1="-600" y2="-575" x1="0" x2="0"></line><text fill="white" font-family="lenya69" font-size="60" x="0" y="-560" stroke="white" dominant-baseline="hanging" text-anchor="middle"></text></g><g transform="rotate(70)"><line stroke="white" stroke-width="5" y1="-600" y2="-560" x1="0" x2="0"></line><text fill="white" font-family="lenya69" font-size="60" x="0" y="-560" stroke="white" dominant-baseline="hanging" text-anchor="middle"></text></g><g transform="rotate(75)"><line stroke="white" stroke-width="5" y1="-600" y2="-575" x1="0" x2="0"></line><text fill="white" font-family="lenya69" font-size="60" x="0" y="-560" stroke="white" dominant-baseline="hanging" text-anchor="middle"></text></g><g transform="rotate(80)"><line stroke="white" stroke-width="5" y1="-600" y2="-560" x1="0" x2="0"></line><text fill="white" font-family="lenya69" font-size="60" x="0" y="-560" stroke="white" dominant-baseline="hanging" text-anchor="middle"></text></g><g transform="rotate(85)"><line stroke="white" stroke-width="5" y1="-600" y2="-575" x1="0" x2="0"></line><text fill="white" font-family="lenya69" font-size="60" x="0" y="-560" stroke="white" dominant-baseline="hanging" text-anchor="middle"></text></g><g transform="rotate(90)"><line stroke="white" stroke-width="5" y1="-600" y2="-560" x1="0" x2="0"></line><text fill="white" font-family="lenya69" font-size="60" x="0" y="-560" stroke="white" dominant-baseline="hanging" text-anchor="middle">09</text></g><g transform="rotate(95)"><line stroke="white" stroke-width="5" y1="-600" y2="-575" x1="0" x2="0"></line><text fill="white" font-family="lenya69" font-size="60" x="0" y="-560" stroke="white" dominant-baseline="hanging" text-anchor="middle"></text></g><g transform="rotate(100)"><line stroke="white" stroke-width="5" y1="-600" y2="-560" x1="0" x2="0"></line><text fill="white" font-family="lenya69" font-size="60" x="0" y="-560" stroke="white" dominant-baseline="hanging" text-anchor="middle"></text></g><g transform="rotate(105)"><line stroke="white" stroke-width="5" y1="-600" y2="-575" x1="0" x2="0"></line><text fill="white" font-family="lenya69" font-size="60" x="0" y="-560" stroke="white" dominant-baseline="hanging" text-anchor="middle"></text></g><g transform="rotate(110)"><line stroke="white" stroke-width="5" y1="-600" y2="-560" x1="0" x2="0"></line><text fill="white" font-family="lenya69" font-size="60" x="0" y="-560" stroke="white" dominant-baseline="hanging" text-anchor="middle"></text></g><g transform="rotate(115)"><line stroke="white" stroke-width="5" y1="-600" y2="-575" x1="0" x2="0"></line><text fill="white" font-family="lenya69" font-size="60" x="0" y="-560" stroke="white" dominant-baseline="hanging" text-anchor="middle"></text></g><g transform="rotate(120)"><line stroke="white" stroke-width="5" y1="-600" y2="-560" x1="0" x2="0"></line><text fill="white" font-family="lenya69" font-size="60" x="0" y="-560" stroke="white" dominant-baseline="hanging" text-anchor="middle">12</text></g><g transform="rotate(125)"><line stroke="white" stroke-width="5" y1="-600" y2="-575" x1="0" x2="0"></line><text fill="white" font-family="lenya69" font-size="60" x="0" y="-560" stroke="white" dominant-baseline="hanging" text-anchor="middle"></text></g><g transform="rotate(130)"><line stroke="white" stroke-width="5" y1="-600" y2="-560" x1="0" x2="0"></line><text fill="white" font-family="lenya69" font-size="60" x="0" y="-560" stroke="white" dominant-baseline="hanging" text-anchor="middle"></text></g><g transform="rotate(135)"><line stroke="white" stroke-width="5" y1="-600" y2="-575" x1="0" x2="0"></line><text fill="white" font-family="lenya69" font-size="60" x="0" y="-560" stroke="white" dominant-baseline="hanging" text-anchor="middle"></text></g><g transform="rotate(140)"><line stroke="white" stroke-width="5" y1="-600" y2="-560" x1="0" x2="0"></line><text fill="white" font-family="lenya69" font-size="60" x="0" y="-560" stroke="white" dominant-baseline="hanging" text-anchor="middle"></text></g><g transform="rotate(145)"><line stroke="white" stroke-width="5" y1="-600" y2="-575" x1="0" x2="0"></line><text fill="white" font-family="lenya69" font-size="60" x="0" y="-560" stroke="white" dominant-baseline="hanging" text-anchor="middle"></text></g><g transform="rotate(150)"><line stroke="white" stroke-width="5" y1="-600" y2="-560" x1="0" x2="0"></line><text fill="white" font-family="lenya69" font-size="60" x="0" y="-560" stroke="white" dominant-baseline="hanging" text-anchor="middle">15</text></g><g transform="rotate(155)"><line stroke="white" stroke-width="5" y1="-600" y2="-575" x1="0" x2="0"></line><text fill="white" font-family="lenya69" font-size="60" x="0" y="-560" stroke="white" dominant-baseline="hanging" text-anchor="middle"></text></g><g transform="rotate(160)"><line stroke="white" stroke-width="5" y1="-600" y2="-560" x1="0" x2="0"></line><text fill="white" font-family="lenya69" font-size="60" x="0" y="-560" stroke="white" dominant-baseline="hanging" text-anchor="middle"></text></g><g transform="rotate(165)"><line stroke="white" stroke-width="5" y1="-600" y2="-575" x1="0" x2="0"></line><text fill="white" font-family="lenya69" font-size="60" x="0" y="-560" stroke="white" dominant-baseline="hanging" text-anchor="middle"></text></g><g transform="rotate(170)"><line stroke="white" stroke-width="5" y1="-600" y2="-560" x1="0" x2="0"></line><text fill="white" font-family="lenya69" font-size="60" x="0" y="-560" stroke="white" dominant-baseline="hanging" text-anchor="middle"></text></g><g transform="rotate(175)"><line stroke="white" stroke-width="5" y1="-600" y2="-575" x1="0" x2="0"></line><text fill="white" font-family="lenya69" font-size="60" x="0" y="-560" stroke="white" dominant-baseline="hanging" text-anchor="middle"></text></g><g transform="rotate(180)"><line stroke="white" stroke-width="5" y1="-600" y2="-560" x1="0" x2="0"></line><text fill="white" font-family="lenya69" font-size="60" x="0" y="-560" stroke="white" dominant-baseline="hanging" text-anchor="middle">18</text></g><g transform="rotate(185)"><line stroke="white" stroke-width="5" y1="-600" y2="-575" x1="0" x2="0"></line><text fill="white" font-family="lenya69" font-size="60" x="0" y="-560" stroke="white" dominant-baseline="hanging" text-anchor="middle"></text></g><g transform="rotate(190)"><line stroke="white" stroke-width="5" y1="-600" y2="-560" x1="0" x2="0"></line><text fill="white" font-family="lenya69" font-size="60" x="0" y="-560" stroke="white" dominant-baseline="hanging" text-anchor="middle"></text></g><g transform="rotate(195)"><line stroke="white" stroke-width="5" y1="-600" y2="-575" x1="0" x2="0"></line><text fill="white" font-family="lenya69" font-size="60" x="0" y="-560" stroke="white" dominant-baseline="hanging" text-anchor="middle"></text></g><g transform="rotate(200)"><line stroke="white" stroke-width="5" y1="-600" y2="-560" x1="0" x2="0"></line><text fill="white" font-family="lenya69" font-size="60" x="0" y="-560" stroke="white" dominant-baseline="hanging" text-anchor="middle"></text></g><g transform="rotate(205)"><line stroke="white" stroke-width="5" y1="-600" y2="-575" x1="0" x2="0"></line><text fill="white" font-family="lenya69" font-size="60" x="0" y="-560" stroke="white" dominant-baseline="hanging" text-anchor="middle"></text></g><g transform="rotate(210)"><line stroke="white" stroke-width="5" y1="-600" y2="-560" x1="0" x2="0"></line><text fill="white" font-family="lenya69" font-size="60" x="0" y="-560" stroke="white" dominant-baseline="hanging" text-anchor="middle">21</text></g><g transform="rotate(215)"><line stroke="white" stroke-width="5" y1="-600" y2="-575" x1="0" x2="0"></line><text fill="white" font-family="lenya69" font-size="60" x="0" y="-560" stroke="white" dominant-baseline="hanging" text-anchor="middle"></text></g><g transform="rotate(220)"><line stroke="white" stroke-width="5" y1="-600" y2="-560" x1="0" x2="0"></line><text fill="white" font-family="lenya69" font-size="60" x="0" y="-560" stroke="white" dominant-baseline="hanging" text-anchor="middle"></text></g><g transform="rotate(225)"><line stroke="white" stroke-width="5" y1="-600" y2="-575" x1="0" x2="0"></line><text fill="white" font-family="lenya69" font-size="60" x="0" y="-560" stroke="white" dominant-baseline="hanging" text-anchor="middle"></text></g><g transform="rotate(230)"><line stroke="white" stroke-width="5" y1="-600" y2="-560" x1="0" x2="0"></line><text fill="white" font-family="lenya69" font-size="60" x="0" y="-560" stroke="white" dominant-baseline="hanging" text-anchor="middle"></text></g><g transform="rotate(235)"><line stroke="white" stroke-width="5" y1="-600" y2="-575" x1="0" x2="0"></line><text fill="white" font-family="lenya69" font-size="60" x="0" y="-560" stroke="white" dominant-baseline="hanging" text-anchor="middle"></text></g><g transform="rotate(240)"><line stroke="white" stroke-width="5" y1="-600" y2="-560" x1="0" x2="0"></line><text fill="white" font-family="lenya69" font-size="60" x="0" y="-560" stroke="white" dominant-baseline="hanging" text-anchor="middle">24</text></g><g transform="rotate(245)"><line stroke="white" stroke-width="5" y1="-600" y2="-575" x1="0" x2="0"></line><text fill="white" font-family="lenya69" font-size="60" x="0" y="-560" stroke="white" dominant-baseline="hanging" text-anchor="middle"></text></g><g transform="rotate(250)"><line stroke="white" stroke-width="5" y1="-600" y2="-560" x1="0" x2="0"></line><text fill="white" font-family="lenya69" font-size="60" x="0" y="-560" stroke="white" dominant-baseline="hanging" text-anchor="middle"></text></g><g transform="rotate(255)"><line stroke="white" stroke-width="5" y1="-600" y2="-575" x1="0" x2="0"></line><text fill="white" font-family="lenya69" font-size="60" x="0" y="-560" stroke="white" dominant-baseline="hanging" text-anchor="middle"></text></g><g transform="rotate(260)"><line stroke="white" stroke-width="5" y1="-600" y2="-560" x1="0" x2="0"></line><text fill="white" font-family="lenya69" font-size="60" x="0" y="-560" stroke="white" dominant-baseline="hanging" text-anchor="middle"></text></g><g transform="rotate(265)"><line stroke="white" stroke-width="5" y1="-600" y2="-575" x1="0" x2="0"></line><text fill="white" font-family="lenya69" font-size="60" x="0" y="-560" stroke="white" dominant-baseline="hanging" text-anchor="middle"></text></g><g transform="rotate(270)"><line stroke="white" stroke-width="5" y1="-600" y2="-560" x1="0" x2="0"></line><text fill="white" font-family="lenya69" font-size="60" x="0" y="-560" stroke="white" dominant-baseline="hanging" text-anchor="middle">27</text></g><g transform="rotate(275)"><line stroke="white" stroke-width="5" y1="-600" y2="-575" x1="0" x2="0"></line><text fill="white" font-family="lenya69" font-size="60" x="0" y="-560" stroke="white" dominant-baseline="hanging" text-anchor="middle"></text></g><g transform="rotate(280)"><line stroke="white" stroke-width="5" y1="-600" y2="-560" x1="0" x2="0"></line><text fill="white" font-family="lenya69" font-size="60" x="0" y="-560" stroke="white" dominant-baseline="hanging" text-anchor="middle"></text></g><g transform="rotate(285)"><line stroke="white" stroke-width="5" y1="-600" y2="-575" x1="0" x2="0"></line><text fill="white" font-family="lenya69" font-size="60" x="0" y="-560" stroke="white" dominant-baseline="hanging" text-anchor="middle"></text></g><g transform="rotate(290)"><line stroke="white" stroke-width="5" y1="-600" y2="-560" x1="0" x2="0"></line><text fill="white" font-family="lenya69" font-size="60" x="0" y="-560" stroke="white" dominant-baseline="hanging" text-anchor="middle"></text></g><g transform="rotate(295)"><line stroke="white" stroke-width="5" y1="-600" y2="-575" x1="0" x2="0"></line><text fill="white" font-family="lenya69" font-size="60" x="0" y="-560" stroke="white" dominant-baseline="hanging" text-anchor="middle"></text></g><g transform="rotate(300)"><line stroke="white" stroke-width="5" y1="-600" y2="-560" x1="0" x2="0"></line><text fill="white" font-family="lenya69" font-size="60" x="0" y="-560" stroke="white" dominant-baseline="hanging" text-anchor="middle">30</text></g><g transform="rotate(305)"><line stroke="white" stroke-width="5" y1="-600" y2="-575" x1="0" x2="0"></line><text fill="white" font-family="lenya69" font-size="60" x="0" y="-560" stroke="white" dominant-baseline="hanging" text-anchor="middle"></text></g><g transform="rotate(310)"><line stroke="white" stroke-width="5" y1="-600" y2="-560" x1="0" x2="0"></line><text fill="white" font-family="lenya69" font-size="60" x="0" y="-560" stroke="white" dominant-baseline="hanging" text-anchor="middle"></text></g><g transform="rotate(315)"><line stroke="white" stroke-width="5" y1="-600" y2="-575" x1="0" x2="0"></line><text fill="white" font-family="lenya69" font-size="60" x="0" y="-560" stroke="white" dominant-baseline="hanging" text-anchor="middle"></text></g><g transform="rotate(320)"><line stroke="white" stroke-width="5" y1="-600" y2="-560" x1="0" x2="0"></line><text fill="white" font-family="lenya69" font-size="60" x="0" y="-560" stroke="white" dominant-baseline="hanging" text-anchor="middle"></text></g><g transform="rotate(325)"><line stroke="white" stroke-width="5" y1="-600" y2="-575" x1="0" x2="0"></line><text fill="white" font-family="lenya69" font-size="60" x="0" y="-560" stroke="white" dominant-baseline="hanging" text-anchor="middle"></text></g><g transform="rotate(330)"><line stroke="white" stroke-width="5" y1="-600" y2="-560" x1="0" x2="0"></line><text fill="white" font-family="lenya69" font-size="60" x="0" y="-560" stroke="white" dominant-baseline="hanging" text-anchor="middle">33</text></g><g transform="rotate(335)"><line stroke="white" stroke-width="5" y1="-600" y2="-575" x1="0" x2="0"></line><text fill="white" font-family="lenya69" font-size="60" x="0" y="-560" stroke="white" dominant-baseline="hanging" text-anchor="middle"></text></g><g transform="rotate(340)"><line stroke="white" stroke-width="5" y1="-600" y2="-560" x1="0" x2="0"></line><text fill="white" font-family="lenya69" font-size="60" x="0" y="-560" stroke="white" dominant-baseline="hanging" text-anchor="middle"></text></g><g transform="rotate(345)"><line stroke="white" stroke-width="5" y1="-600" y2="-575" x1="0" x2="0"></line><text fill="white" font-family="lenya69" font-size="60" x="0" y="-560" stroke="white" dominant-baseline="hanging" text-anchor="middle"></text></g><g transform="rotate(350)"><line stroke="white" stroke-width="5" y1="-600" y2="-560" x1="0" x2="0"></line><text fill="white" font-family="lenya69" font-size="60" x="0" y="-560" stroke="white" dominant-baseline="hanging" text-anchor="middle"></text></g><g transform="rotate(355)"><line stroke="white" stroke-width="5" y1="-600" y2="-575" x1="0" x2="0"></line><text fill="white" font-family="lenya69" font-size="60" x="0" y="-560" stroke="white" dominant-baseline="hanging" text-anchor="middle"></text></g></g><path d="M 0 -600 l 0 -10 l 30 -30 l 50 0 l 0 -70 l -160 0 l 0 70 l 50 0 l 30 30" stroke-width="5" stroke="rgb(0,255,0)"></path><text fill="white" font-family="lenya69" font-size="80" x="0" y="-675" stroke="white" dominant-baseline="central" text-anchor="middle">040</text><text fill="rgb(128,128,255)" font-family="lenya69" font-size="80" x="0" y="-745" stroke="rgb(128,128,255)" dominant-baseline="central" text-anchor="middle" textLength="130">040</text><text fill="white" font-family="lenya69" font-size="100" x="-150" y="-675" stroke="white" dominant-baseline="central" text-anchor="middle" textLength="100">ИК</text></g></g><rect height="30" width="1600" x="-800" y="770" fill="black" fill-opacity="1"></rect><path d="M 800 -445 l -60 -100 l -105 0 l 0 220 l 70 90 l 0 180 l -70 90 l 0 220 l 105 0 l 60 -100 Z" fill="grey" stroke-width="5"></path></g></svg>