<?xml version="1.0" encoding="UTF-8"?>
<svg xmlns="http://www.w3.org/2000/svg" xmlns:xlink="http://www.w3.org/1999/xlink" width="284.46pt" height="284.46pt" viewBox="0 0 284.46 284.46" version="1.1">
<g id="surface1">
<path style=" stroke:none;fill-rule:nonzero;fill:rgb(0%,38.798523%,63.499451%);fill-opacity:1;" d="M 206.273438 184.75 C 189.472656 213.65625 156.644531 231.574219 121.480469 231.574219 C 87.082031 231.574219 55.609375 214.414063 38.5625 186.59375 C 38.28125 186.125 38.007813 185.671875 37.722656 185.203125 C 37.601563 185.007813 28.449219 184.667969 28.699219 185.265625 C 28.910156 185.753906 29.132813 186.253906 29.347656 186.6875 C 29.742188 187.5 30.082031 188.152344 30.148438 188.265625 C 48.339844 219.765625 83.253906 239.273438 121.480469 239.273438 C 159.480469 239.273438 197.113281 220.011719 214.648438 185.375 C 214.953125 184.777344 206.472656 184.386719 206.273438 184.75 "/>
<path style="fill:none;stroke-width:15.97;stroke-linecap:butt;stroke-linejoin:miter;stroke:rgb(100%,100%,100%);stroke-opacity:1;stroke-miterlimit:4;" d="M 2062.734375 997.1 C 1894.726563 708.0375 1566.445313 528.857812 1214.804688 528.857812 C 870.820313 528.857812 556.09375 700.459375 385.625 978.6625 C 382.8125 983.35 380.078125 987.88125 377.226563 992.56875 C 376.015625 994.521875 284.492188 997.920312 286.992188 991.94375 C 289.101563 987.060937 291.328125 982.060937 293.476563 977.725 C 297.421875 969.6 300.820313 963.076562 301.484375 961.94375 C 483.398438 646.94375 832.539063 451.865625 1214.804688 451.865625 C 1594.804688 451.865625 1971.132813 644.482812 2146.484375 990.85 C 2149.53125 996.826562 2064.726563 1000.732812 2062.734375 997.1 Z M 2062.734375 997.1 " transform="matrix(0.1,0,0,-0.1,0,284.46)"/>
<path style=" stroke:none;fill-rule:nonzero;fill:rgb(100%,100%,100%);fill-opacity:1;" d="M 214.847656 119.726563 C 216.378906 126.859375 217.074219 135.722656 217.074219 141.984375 C 217.074219 149.273438 213.789063 163.488281 211.730469 171.253906 C 211.519531 172.011719 220.109375 172.296875 220.253906 171.742188 C 222.367188 163.800781 225.285156 150.183594 225.285156 141.984375 C 225.285156 135.269531 224.519531 125.667969 222.839844 117.917969 C 222.679688 117.210938 214.695313 119.027344 214.847656 119.726563 "/>
<path style="fill:none;stroke-width:15.97;stroke-linecap:butt;stroke-linejoin:miter;stroke:rgb(100%,100%,100%);stroke-opacity:1;stroke-miterlimit:4;" d="M 2148.476563 1647.334375 C 2163.789063 1576.00625 2170.742188 1487.373437 2170.742188 1424.75625 C 2170.742188 1351.865625 2137.890625 1209.717187 2117.304688 1132.060937 C 2115.195313 1124.482812 2201.09375 1121.63125 2202.539063 1127.178125 C 2223.671875 1206.592187 2252.851563 1342.764062 2252.851563 1424.75625 C 2252.851563 1491.904687 2245.195313 1587.920312 2228.398438 1665.420312 C 2226.796875 1672.490625 2146.953125 1654.326562 2148.476563 1647.334375 Z M 2148.476563 1647.334375 " transform="matrix(0.1,0,0,-0.1,0,284.46)"/>
<path style=" stroke:none;fill-rule:nonzero;fill:rgb(0%,38.798523%,63.499451%);fill-opacity:1;" d="M 16.246094 142.457031 C 16.246094 147.722656 16.699219 153 17.589844 158.164063 C 17.617188 158.300781 17.636719 158.449219 17.664063 158.585938 C 17.714844 158.882813 17.964844 159.789063 18.5625 161.265625 L 26.46875 159.328125 C 25.878906 157.90625 25.839844 157.660156 25.792969 157.433594 C 25.738281 157.054688 25.664063 156.6875 25.609375 156.320313 C 24.851563 151.753906 24.46875 147.105469 24.46875 142.457031 C 24.46875 93.0625 67.347656 52.878906 120.066406 52.878906 C 147.742188 52.878906 164.957031 59.046875 185.757813 77.492188 L 195.691406 75.921875 C 176.277344 55.8125 150.128906 45.183594 120.066406 45.183594 C 62.820313 45.183594 16.246094 88.824219 16.246094 142.457031 "/>
<path style="fill:none;stroke-width:15.97;stroke-linecap:butt;stroke-linejoin:miter;stroke:rgb(100%,100%,100%);stroke-opacity:1;stroke-miterlimit:4;" d="M 162.460938 1420.029687 C 162.460938 1367.373437 166.992188 1314.6 175.898438 1262.959375 C 176.171875 1261.592187 176.367188 1260.107812 176.640625 1258.740625 C 177.148438 1255.771875 179.648438 1246.709375 185.625 1231.94375 L 264.6875 1251.31875 C 258.789063 1265.5375 258.398438 1267.998437 257.929688 1270.264062 C 257.382813 1274.053125 256.640625 1277.725 256.09375 1281.396875 C 248.515625 1327.060937 244.6875 1373.545312 244.6875 1420.029687 C 244.6875 1913.975 673.476563 2315.810937 1200.664063 2315.810937 C 1477.421875 2315.810937 1649.570313 2254.13125 1857.578125 2069.678125 L 1956.914063 2085.38125 C 1762.773438 2286.475 1501.289063 2392.764062 1200.664063 2392.764062 C 628.203125 2392.764062 162.460938 1956.357812 162.460938 1420.029687 Z M 162.460938 1420.029687 " transform="matrix(0.1,0,0,-0.1,0,284.46)"/>
<path style="fill:none;stroke-width:20.951;stroke-linecap:square;stroke-linejoin:round;stroke:rgb(100%,100%,100%);stroke-opacity:1;stroke-miterlimit:4;" d="M 2811.289063 2134.834375 L 636.484375 1761.982812 C 636.484375 1761.982812 536.875 1738.623437 546.40625 1627.217187 C 547.96875 1609.209375 601.992188 1350.303125 577.265625 1312.4125 C 572.109375 1304.365625 556.09375 1269.053125 488.75 1239.6 C 332.1875 1171.514062 38.75 1074.75625 33.359375 1074.75625 L 597.304688 1073.232812 L 983.90625 1526.00625 L 1773.984375 1526.00625 L 1980.039063 1643.740625 L 1604.179688 1647.139062 L 1733.710938 1735.498437 C 1733.710938 1735.498437 2154.492188 1735.498437 2163.554688 1735.498437 C 2175.742188 1735.498437 2811.289063 2134.834375 2811.289063 2134.834375 Z M 2811.289063 2134.834375 " transform="matrix(0.1,0,0,-0.1,0,284.46)"/>
<path style=" stroke:none;fill-rule:nonzero;fill:rgb(0%,38.798523%,63.499451%);fill-opacity:1;" d="M 103.65625 139.382813 L 69.746094 180.304688 L 91.195313 180.304688 L 116.632813 171.53125 L 109.3125 180.429688 L 131.152344 180.429688 L 161.605469 139.503906 L 139.898438 139.382813 L 124.734375 160.5625 L 100.769531 169.410156 L 122.675781 139.382813 L 103.65625 139.382813 "/>
<path style="fill:none;stroke-width:20.951;stroke-linecap:butt;stroke-linejoin:miter;stroke:rgb(100%,100%,100%);stroke-opacity:1;stroke-miterlimit:4;" d="M 1036.5625 1450.771875 L 697.460938 1041.553125 L 911.953125 1041.553125 L 1166.328125 1129.2875 L 1093.125 1040.303125 L 1311.523438 1040.303125 L 1616.054688 1449.560937 L 1398.984375 1450.771875 L 1247.34375 1238.975 L 1007.695313 1150.498437 L 1226.757813 1450.771875 Z M 1036.5625 1450.771875 " transform="matrix(0.1,0,0,-0.1,0,284.46)"/>
<path style=" stroke:none;fill-rule:nonzero;fill:rgb(0%,38.798523%,63.499451%);fill-opacity:1;" d="M 147.609375 164.78125 C 147.3125 164.78125 146.011719 165.140625 145.035156 166.355469 C 142.636719 169.296875 139.632813 174.890625 139.632813 174.890625 C 139.632813 174.890625 138.8125 176.511719 139.449219 179.410156 C 139.660156 180.414063 141.035156 180.304688 141.035156 180.304688 L 152.613281 180.304688 L 174.214844 166.828125 C 174.214844 166.828125 170.832031 173.042969 169.972656 177.039063 C 169.570313 178.828125 171.300781 180.019531 171.894531 180.171875 C 173.128906 180.46875 221.226563 180.304688 221.226563 180.304688 L 225.734375 175.859375 L 197.75 175.859375 C 197.75 175.859375 194.585938 176.675781 193.46875 173.707031 C 191.925781 169.601563 204.269531 149.015625 204.269531 149.015625 L 191.035156 148.882813 L 158.722656 168.097656 L 160.199219 164.050781 C 160.199219 164.050781 148.625 164.78125 147.609375 164.78125 "/>
<path style="fill:none;stroke-width:20.951;stroke-linecap:butt;stroke-linejoin:miter;stroke:rgb(100%,100%,100%);stroke-opacity:1;stroke-miterlimit:4;" d="M 1476.09375 1196.7875 C 1473.125 1196.7875 1460.117188 1193.19375 1450.351563 1181.045312 C 1426.367188 1151.63125 1396.328125 1095.69375 1396.328125 1095.69375 C 1396.328125 1095.69375 1388.125 1079.482812 1394.492188 1050.498437 C 1396.601563 1040.459375 1410.351563 1041.553125 1410.351563 1041.553125 L 1526.132813 1041.553125 L 1742.148438 1176.31875 C 1742.148438 1176.31875 1708.320313 1114.170312 1699.726563 1074.209375 C 1695.703125 1056.31875 1713.007813 1044.404687 1718.945313 1042.88125 C 1731.289063 1039.9125 2212.265625 1041.553125 2212.265625 1041.553125 L 2257.34375 1086.00625 L 1977.5 1086.00625 C 1977.5 1086.00625 1945.859375 1077.842187 1934.6875 1107.529687 C 1919.257813 1148.584375 2042.695313 1354.44375 2042.695313 1354.44375 L 1910.351563 1355.771875 L 1587.226563 1163.623437 L 1601.992188 1204.092187 C 1601.992188 1204.092187 1486.25 1196.7875 1476.09375 1196.7875 Z M 1476.09375 1196.7875 " transform="matrix(0.1,0,0,-0.1,0,284.46)"/>
<path style=" stroke:none;fill-rule:nonzero;fill:rgb(0%,38.798523%,63.499451%);fill-opacity:1;" d="M 206.273438 184.75 C 189.472656 213.65625 156.644531 231.574219 121.480469 231.574219 C 87.082031 231.574219 55.609375 214.414063 38.5625 186.59375 C 38.28125 186.125 38.007813 185.671875 37.722656 185.203125 C 37.601563 185.007813 28.449219 184.667969 28.699219 185.265625 C 28.910156 185.753906 29.132813 186.253906 29.347656 186.6875 C 29.742188 187.5 30.082031 188.152344 30.148438 188.265625 C 48.339844 219.765625 83.253906 239.273438 121.480469 239.273438 C 159.480469 239.273438 197.113281 220.011719 214.648438 185.375 C 214.953125 184.777344 206.472656 184.386719 206.273438 184.75 "/>
<path style=" stroke:none;fill-rule:nonzero;fill:rgb(0%,38.798523%,63.499451%);fill-opacity:1;" d="M 214.847656 119.726563 C 216.378906 126.859375 217.074219 135.722656 217.074219 141.984375 C 217.074219 149.273438 213.789063 163.488281 211.730469 171.253906 C 211.519531 172.011719 220.109375 172.296875 220.253906 171.742188 C 222.367188 163.800781 225.285156 150.183594 225.285156 141.984375 C 225.285156 135.269531 224.519531 125.667969 222.839844 117.917969 C 222.679688 117.210938 214.695313 119.027344 214.847656 119.726563 "/>
<path style=" stroke:none;fill-rule:nonzero;fill:rgb(0%,38.798523%,63.499451%);fill-opacity:1;" d="M 16.246094 142.457031 C 16.246094 147.722656 16.699219 153 17.589844 158.164063 C 17.617188 158.300781 17.636719 158.449219 17.664063 158.585938 C 17.714844 158.882813 17.964844 159.789063 18.5625 161.265625 L 26.46875 159.328125 C 25.878906 157.90625 25.839844 157.660156 25.792969 157.433594 C 25.738281 157.054688 25.664063 156.6875 25.609375 156.320313 C 24.851563 151.753906 24.46875 147.105469 24.46875 142.457031 C 24.46875 93.0625 67.347656 52.878906 120.066406 52.878906 C 147.742188 52.878906 164.957031 59.046875 185.757813 77.492188 L 195.691406 75.921875 C 176.277344 55.8125 150.128906 45.183594 120.066406 45.183594 C 62.820313 45.183594 16.246094 88.824219 16.246094 142.457031 "/>
<path style="fill:none;stroke-width:8.069;stroke-linecap:square;stroke-linejoin:round;stroke:rgb(0%,38.798523%,63.499451%);stroke-opacity:1;stroke-miterlimit:4;" d="M 2811.289063 2134.834375 L 636.484375 1761.982812 C 636.484375 1761.982812 536.875 1738.623437 546.40625 1627.217187 C 547.96875 1609.209375 601.992188 1350.303125 577.265625 1312.4125 C 572.109375 1304.365625 556.09375 1269.053125 488.75 1239.6 C 332.1875 1171.514062 38.75 1074.75625 33.359375 1074.75625 L 597.304688 1073.232812 L 983.90625 1526.00625 L 1773.984375 1526.00625 L 1980.039063 1643.740625 L 1604.179688 1647.139062 L 1733.710938 1735.498437 C 1733.710938 1735.498437 2154.492188 1735.498437 2163.554688 1735.498437 C 2175.742188 1735.498437 2811.289063 2134.834375 2811.289063 2134.834375 Z M 2811.289063 2134.834375 " transform="matrix(0.1,0,0,-0.1,0,284.46)"/>
<path style=" stroke:none;fill-rule:nonzero;fill:rgb(0%,38.798523%,63.499451%);fill-opacity:1;" d="M 103.65625 139.382813 L 69.746094 180.304688 L 91.195313 180.304688 L 116.632813 171.53125 L 109.3125 180.429688 L 131.152344 180.429688 L 161.605469 139.503906 L 139.898438 139.382813 L 124.734375 160.5625 L 100.769531 169.410156 L 122.675781 139.382813 L 103.65625 139.382813 "/>
<path style=" stroke:none;fill-rule:nonzero;fill:rgb(0%,38.798523%,63.499451%);fill-opacity:1;" d="M 147.609375 164.78125 C 147.3125 164.78125 146.011719 165.140625 145.035156 166.355469 C 142.636719 169.296875 139.632813 174.890625 139.632813 174.890625 C 139.632813 174.890625 138.8125 176.511719 139.449219 179.410156 C 139.660156 180.414063 141.035156 180.304688 141.035156 180.304688 L 152.613281 180.304688 L 174.214844 166.828125 C 174.214844 166.828125 170.832031 173.042969 169.972656 177.039063 C 169.570313 178.828125 171.300781 180.019531 171.894531 180.171875 C 173.128906 180.46875 221.226563 180.304688 221.226563 180.304688 L 225.734375 175.859375 L 197.75 175.859375 C 197.75 175.859375 194.585938 176.675781 193.46875 173.707031 C 191.925781 169.601563 204.269531 149.015625 204.269531 149.015625 L 191.035156 148.882813 L 158.722656 168.097656 L 160.199219 164.050781 C 160.199219 164.050781 148.625 164.78125 147.609375 164.78125 "/>
</g>
</svg>
