<?xml version="1.0" encoding="UTF-8"?><svg width="470mm" height="80mm" viewBox="0 0 4700 800"><g id="PU56" viewBox="0 0 4700 800"><rect height="800" width="4700" x="0" y="0" fill="rgb(101,139,148)" fill-opacity="0"></rect><g transform="translate(100,0)"><text fill="white" font-family="lenya69" font-size="60" x="850" y="75" stroke="white" dominant-baseline="central" textLength="110" lengthAdjust="spacingAndGlyphs" letter-spacing="-3">V/M</text><text fill="white" font-family="lenya69" font-size="60" x="385" y="300" stroke="white" dominant-baseline="central" textLength="110" lengthAdjust="spacingAndGlyphs" letter-spacing="-3">V/M</text><text fill="white" font-family="lenya69" font-size="60" x="1600" y="75" stroke="white" dominant-baseline="central" textLength="30" lengthAdjust="spacingAndGlyphs">H</text><text fill="white" font-family="lenya69" font-size="30" x="1630" y="85" stroke="white" dominant-baseline="central" textLength="60" lengthAdjust="spacingAndGlyphs">ЭШ</text><text fill="white" font-family="lenya69" font-size="60" x="2070" y="75" stroke="white" dominant-baseline="central" textLength="150" lengthAdjust="spacingAndGlyphs">ВНИЗ</text><g transform="translate(2250,295)"><path d="M 2.5 0 l 0 -80 l 5 0 l -7.5 -30 l -7.5 30 l 5 0 l 0 80" fill="white" stroke-width="1" stroke="white"></path><g transform="rotate(180),translate(0,-200)"><path d="M 2.5 0 l 0 -80 l 5 0 l -7.5 -30 l -7.5 30 l 5 0 l 0 80" fill="white" stroke-width="1" stroke="white"></path></g></g><path d="M 2300 450 l 50 0 l 120 200" fill="none" stroke-width="5" stroke="white"></path><text fill="white" font-family="lenya69" font-size="60" x="2465" y="75" stroke="white" dominant-baseline="central" textLength="100" lengthAdjust="spacingAndGlyphs">±Vy</text><text fill="white" font-family="lenya69" font-size="60" x="2570" y="75" stroke="white" dominant-baseline="central" textLength="30" lengthAdjust="spacingAndGlyphs">/</text><text fill="white" font-family="lenya69" font-size="60" x="2620" y="75" stroke="white" dominant-baseline="central" textLength="120" lengthAdjust="spacingAndGlyphs">УНТ</text><text fill="white" font-family="lenya69" font-size="60" x="2055" y="710" stroke="white" dominant-baseline="central" textLength="180" lengthAdjust="spacingAndGlyphs">ВВЕРХ</text><text fill="white" font-family="lenya69" font-size="60" x="3660" y="75" stroke="white" dominant-baseline="central" textLength="220" lengthAdjust="spacingAndGlyphs">ЗПУ/ЗК</text><text fill="white" font-family="lenya69" font-size="60" x="4250" y="75" stroke="white" dominant-baseline="central" textLength="220" lengthAdjust="spacingAndGlyphs">ПУ-56М</text><text fill="white" font-family="lenya69" font-size="60" x="3000" y="75" stroke="white" dominant-baseline="central" textLength="250" lengthAdjust="spacingAndGlyphs">ОБР ЛУЧ</text><text fill="white" font-family="lenya69" font-size="60" x="4440" y="470" stroke="white" dominant-baseline="central" textLength="120" lengthAdjust="spacingAndGlyphs" letter-spacing="-3">ДИР</text><g transform="translate(3785,640)"><path d="M -330 20 l 135 0 l 50 -20" fill="none" stroke-width="5" stroke="white"></path><text fill="white" font-family="lenya69" font-size="60" x="-315" y="-30" stroke="white" dominant-baseline="central" textLength="110" lengthAdjust="spacingAndGlyphs">АВТ</text><path d="M -330 20 l 135 0 l 50 -20" fill="none" stroke-width="5" stroke="white"></path><line stroke="white" stroke-width="5" y1="41.41104721640332" y2="46.58742811845373" x1="154.54813220625093" x2="173.8666487320323"></line><line stroke="white" stroke-width="5" y1="-41.41104721640332" y2="-46.58742811845373" x1="154.54813220625093" x2="173.8666487320323"></line><line stroke="white" stroke-width="5" y1="-113.1370849898476" y2="-127.27922061357854" x1="113.13708498984761" x2="127.27922061357856"></line><line stroke="white" stroke-width="5" y1="-154.54813220625093" y2="-173.8666487320323" x1="41.41104721640332" x2="46.58742811845373"></line><line stroke="white" stroke-width="5" y1="-154.54813220625093" y2="-173.8666487320323" x1="-41.411047216403304" x2="-46.587428118453715"></line><line stroke="white" stroke-width="5" y1="-113.13708498984766" y2="-127.27922061357862" x1="-113.13708498984754" x2="-127.27922061357849"></line><line stroke="white" stroke-width="5" y1="-41.41104721640336" y2="-46.587428118453786" x1="-154.5481322062509" x2="-173.86664873203227"></line><g transform="rotate(15)"><path d="M -160 0 a 160 160 0 0 1 320 0" fill="none" stroke-width="5" stroke="white"></path></g><text fill="white" font-family="lenya69" font-size="60" x="-180" y="-135" stroke="white" dominant-baseline="central" textLength="30" lengthAdjust="spacingAndGlyphs">5</text><text fill="white" font-family="lenya69" font-size="60" x="60" y="-190" stroke="white" dominant-baseline="central" textLength="50" lengthAdjust="spacingAndGlyphs">15</text><text fill="white" font-family="lenya69" font-size="60" x="175" y="75" stroke="white" dominant-baseline="central" textLength="60" lengthAdjust="spacingAndGlyphs">30</text></g><g transform="translate(765,640)"></g><g transform="translate(3040,130)"><g transform="translate(0,0)" height="180" width="180"></g><g transform="translate(0,200)"></g><g transform="translate(0,400)"></g><g transform="translate(200,200)"></g><g transform="translate(200,400)"></g></g><g transform="translate(1600,130)"><g transform="translate(200,400)"></g><g transform="translate(0,400)"></g></g><g transform="translate(990,130)"><g transform="translate(0,400)"></g></g><g transform="translate(2500,130)"><g transform="translate(0,400)"></g></g><g transform="translate(4200,130)"><g transform="translate(0,200)"></g><g transform="translate(0,400)"></g></g><g transform="translate(150,130)"><g transform="translate(0,0)"></g><g transform="translate(0,200)"></g><g transform="translate(0,400)"></g><g transform="translate(200,400)"></g></g></g><text fill="white" font-family="lenya69" font-size="60" x="40" y="470" stroke="white" dominant-baseline="central" textLength="120" lengthAdjust="spacingAndGlyphs" letter-spacing="-3">ДИР</text><text fill="white" font-family="lenya69" font-size="60" x="40" y="160" stroke="white" dominant-baseline="central" textLength="120" lengthAdjust="spacingAndGlyphs" letter-spacing="-3">ЯРК</text><g transform="translate(1500,640)"><path d="M -210 30 l 100 -40" fill="none" stroke-width="5" stroke="white"></path><path d="M -151.55444566227675 -87.50000000000001 L -149.89713171028188 -90.06728334989572 L -148.19640480333547 -92.60339142475256 L -146.45284792746966 -95.1075914894991 L -144.66705641085477 -97.57916165564532 L -142.83963772289295 -100.01739108871365 L -140.97121126983458 -102.42158021196344 L -139.06240818698487 -104.7910409063504 L -137.11387112756964 -107.12509670666454 L -135.12625404833082 -109.4230829937905 L -133.10022199192244 -111.68434718303621 L -131.0364508661788 -113.90824890847682 L -128.9356272203279 -116.09416020326191 L -126.79844801822368 -118.24146567583567 L -124.62562040867132 -120.34956268202127 L -122.41786149292103 -122.41786149292105 L -120.17589808940653 -124.44578545858666 L -117.90046649580442 -126.43277116741409 L -115.59231224849276 -128.37826860121984 L -113.25218987948632 -130.28174128595603 L -110.88086267092802 -132.1426664380237 L -108.47910240721572 -133.96053510614536 L -106.04768912484464 -135.73485230875784 L -103.5874108600463 -137.4651371668903 L -101.09906339430538 -139.15092303249097 L -98.58344999783604 -140.79175761217047 L -96.04138117110078 -142.3872030863284 L -93.47367438445403 -143.9368362236334 L -90.88115381599464 -145.44024849082706 L -88.26465008771054 -146.8970461578245 L -85.62499999999999 -148.30685039808512 L -82.96304626465442 -149.66929738422908 L -80.27963723638733 -150.9840383788765 L -77.57562664299505 -152.25073982068736 L -74.85187331423496 -153.46908340558278 L -72.10924090950684 -154.6387661631284 L -69.34859764442393 -155.75950052806346 L -66.57081601636001 -156.83101440695953 L -63.77677252905902 -157.85305123999555 L -60.967347416394205 -158.82537005783644 L -58.14342436536368 -159.74774553360444 L -55.305890238409496 -160.61996802993394 L -52.45563479514732 -161.4418436411023 L -49.59355041359422 -162.21319423022987 L -46.720531810981356 -162.93385746154505 L -43.83747576423945 -163.60368682771096 L -40.94528083024376 -164.2225516722124 L -38.04484706590617 -164.79033720680292 L -35.137075748201326 -165.30694452401315 L -32.222869094214005 -165.77229060472425 L -29.303129981294493 -166.1863083208101 L -26.37876166740893 -166.5489464328551 L -23.450667511771027 -166.8601695829546 L -20.519750695841708 -167.1199582826076 L -17.586913944782697 -167.32830889571198 L -14.65305924945003 -167.48523361667472 L -11.71908758901305 -167.59076044365045 L -8.785898654284196 -167.64493314692407 L -5.8543905718445375 -167.6478112324533 L -2.925459629049649 -167.5994699005901 L 0 -167.5 L 2.9210965274403278 -167.349507976801 L 5.836940823493287 -167.14811581894378 L 8.746646687101988 -166.89596099585816 L 11.649331115268925 -166.59319639339063 L 14.544114571015456 -166.23999024406004 L 17.430121249881218 -165.83652605265956 L 20.3064793448827 -165.38300251723527 L 23.172321309850897 -164.87963344547146 L 26.02678412106841 -164.32664766651604 L 28.869009537127166 -163.72428893827959 L 31.698144356928506 -163.0728158502432 L 34.513340675748054 -162.37250172181174 L 37.31375613928861 -161.6236344962509 L 40.09855419564493 -160.8265166302464 L 42.866904345105 -159.98146497912694 L 45.61798238771336 -159.08881067779177 L 48.35097066852259 -158.14889901738698 L 51.065058320460054 -157.16208931777413 L 53.759441504738 -156.12875479583718 L 56.43332364873534 -155.0492824296749 L 59.085915681281385 -153.92407281872613 L 61.716436265271504 -152.75354003987823 L 64.32411202754669 -151.538111499608 L 66.90817778596913 -150.27822778220784 L 69.46787677362747 -148.97434249414934 L 72.00246086010597 -147.6269221046382 L 74.51119076975311 -146.23644578241587 L 76.9933362968861 -144.80340522886402 L 79.44817651786849 -143.3283045074685 L 81.87499999999999 -141.81165986970183 L 84.27310500715761 -140.25399957738313 L 86.641799702129 -138.65586372157566 L 88.98040234558005 -137.01780403808365 L 91.28824149159944 -135.34038371961054 L 93.56465617976438 -133.62417722464178 L 95.80899612367313 -131.86977008311644 L 98.02062189588986 -130.0777586989528 L 100.19890510925089 -128.248750149494 L 102.34322859447981 -126.3833619819399 L 104.45298657406263 -124.48222200683392 L 106.52758483233362 -122.54596808867261 L 108.56644088172474 -120.57524793370722 L 110.56898412513256 -118.57071887500801 L 112.53465601435755 -116.53304765486149 L 114.46291020457237 -114.4629102045724 L 116.35321270477684 -112.36099142174281 L 118.20504202419842 -110.22798494510131 L 120.01788931459917 -108.06459292695561 L 121.79125850844983 -105.87152580334312 L 123.52466645293521 -103.64950206195448 L 125.21764303975444 -101.39924800790507 L 126.86973133068224 -99.12149752743099 L 128.48048767885822 -96.81699184958576 L 130.0494818457728 -94.48647930601506 L 131.5762971139193 -92.13071508888677 A 15 15 0 0 0 155.12691838722782 -108.62103763397934 L 155.12691838722782 -108.62103763397934 L 153.1064661854588 -111.23835899635054 L 151.04194083769426 -113.81826625363112 L 148.93403243167046 -116.36001883654941 L 146.78344347018538 -118.86288885953806 L 144.5908886387071 -121.32616132833431 L 142.35709456952037 -123.74913434333443 L 140.08279960248882 -126.13111929864478 L 137.76875354251123 -128.47144107677315 L 135.41571741375108 -130.76943823890625 L 133.02446321071923 -133.02446321071926 L 130.5957736462915 -135.23588246366643 L 128.1304418967419 -137.40307669170164 L 125.62927134387563 -139.52544098338078 L 123.09307531434393 -141.6023849892976 L 120.52267681622611 -143.63333308480838 L 117.91890827296328 -145.6177245279999 L 115.28261125472952 -147.5550136128587 L 112.61463620732704 -149.44466981759967 L 109.91584217869247 -151.28617794811518 L 107.18709654310173 -153.07903827650534 L 104.42927472316198 -154.82276667465402 L 101.64325990967943 -156.51689474281477 L 98.82994277949271 -158.16096993317345 L 95.99022121136134 -159.75455566835618 L 93.12499999999999 -161.2972314548517 L 90.23519056834948 -162.78859299132003 L 87.32171067817569 -164.22825227176043 L 84.38548413908825 -165.6158376835129 L 81.42744051607113 -166.9509941000703 L 78.44851483561733 -168.23338296867814 L 75.44964729056093 -169.46268239270245 L 72.43178294369912 -170.63858720874615 L 69.3958714302977 -171.76080905849736 L 66.34286665957372 -172.82907645529448 L 63.27372651524871 -173.84313484539305 L 60.18941255526685 -174.8027466639237 L 57.090889710771535 -175.7076913855296 L 53.97912598443528 -176.5577655696754 L 50.855092148236345 -177.35278290061984 L 47.71976144077726 -178.09257422204698 L 44.57410926423878 -178.77698756635235 L 41.419112881064144 -179.40588817858145 L 38.25575111046772 -179.97915853502025 L 35.08500402486217 -180.49669835643923 L 31.907852646298448 -180.95842461599324 L 28.725278643012395 -181.36427154178216 L 25.53826402617201 -181.71419061407815 L 22.34779084691892 -182.00815055722742 L 19.1548408937975 -182.24613732623607 L 15.960395390664901 -182.42815408805092 L 12.76543469517493 -182.55422119754783 L 9.570937997928354 -182.6243761682427 L 6.377883022382052 -182.63867363773974 L 3.1872457256089013 -182.59718532793596 L 0 -182.5 L -3.18288262399958 -182.34722340414686 L -6.360433274030802 -182.13897822423021 L -9.531686030746146 -181.87540401717675 L -12.695678221430805 -181.556657147288 L -15.85145071223033 -181.1829107154362 L -18.99804819889602 -180.75435448318368 L -22.13451949595991 -180.2711947918551 L -25.259917824251875 -179.733654476595 L -28.373301096671874 -179.14197277544312 L -31.47373220213112 -178.4964052334627 L -34.56027928757668 -177.79722360195814 L -37.63201603801444 -177.04471573281882 L -40.68802195444658 -176.23918546802943 L -43.72738262963994 -175.38095252438637 L -46.74919002164281 -174.47035237346296 L -49.75254272496835 -173.50773611686657 L -52.73654623936365 -172.49347035683252 L -55.70031323608427 -171.42793706220144 L -58.64296382159535 -170.31153342982694 L -61.56362579862037 -169.14467174146353 L -64.46143492446089 -167.92777921618418 L -67.33553516651018 -166.66129785838004 L -70.1850789548858 -165.3456843013946 L -73.00922743210614 -163.98140964684686 L -75.80715069973796 -162.5689592996991 L -78.57802806194212 -161.10883279912568 L -81.32104826584631 -159.6015436452414 L -84.03540973867446 -158.04761912174794 L -86.72032082156355 -156.4476001145594 L -89.37499999999999 -154.8020409264684 L -91.99867613080842 -153.1115090879148 L -94.59058866562708 -151.37658516392204 L -97.14998787080546 -149.59786255726502 L -99.67613504366064 -147.77594730793618 L -102.16830272503007 -145.91145788897666 L -104.62577490806022 -144.00502499874065 L -107.04784724317058 -142.05729134966222 L -109.43382723913577 -140.0689114535948 L -111.78303446022737 -138.04055140379447 L -114.09480071936072 -135.9728886536186 L -116.36847026719123 -133.8666117920142 L -118.60339997710763 -131.72242031586813 L -120.79895952607005 -129.54102439929557 L -122.95453157124251 -127.32314465994126 L -125.06951192237058 -125.06951192237061 L -127.1433097098566 -122.78086697862777 L -129.17534754848597 -120.45796034603879 L -131.1650616967601 -118.10155202233848 L -133.1119022117914 -115.71241123820072 L -135.01533309971987 -113.29131620725256 L -136.874832461609 -110.83905387365263 L -138.68989263478306 -108.35641965731585 L -140.4600203295676 -105.8442171968665 L -142.184736761397 -103.30325809040215 L -143.86357777825418 -100.73436163415246 L -145.49609398340982 -98.13835455911607 L -147.08185085342873 -95.51607076576038 L -148.62042885141366 -92.86835105686916 L -150.11142353545742 -90.19604286862324 " fill="white" stroke-width="1" stroke="white"></path></g><g transform="translate(870,640)"><path d="M -210 30 l 100 -40" fill="none" stroke-width="5" stroke="white"></path><path d="M -151.55444566227675 -87.50000000000001 L -149.89713171028188 -90.06728334989572 L -148.19640480333547 -92.60339142475256 L -146.45284792746966 -95.1075914894991 L -144.66705641085477 -97.57916165564532 L -142.83963772289295 -100.01739108871365 L -140.97121126983458 -102.42158021196344 L -139.06240818698487 -104.7910409063504 L -137.11387112756964 -107.12509670666454 L -135.12625404833082 -109.4230829937905 L -133.10022199192244 -111.68434718303621 L -131.0364508661788 -113.90824890847682 L -128.9356272203279 -116.09416020326191 L -126.79844801822368 -118.24146567583567 L -124.62562040867132 -120.34956268202127 L -122.41786149292103 -122.41786149292105 L -120.17589808940653 -124.44578545858666 L -117.90046649580442 -126.43277116741409 L -115.59231224849276 -128.37826860121984 L -113.25218987948632 -130.28174128595603 L -110.88086267092802 -132.1426664380237 L -108.47910240721572 -133.96053510614536 L -106.04768912484464 -135.73485230875784 L -103.5874108600463 -137.4651371668903 L -101.09906339430538 -139.15092303249097 L -98.58344999783604 -140.79175761217047 L -96.04138117110078 -142.3872030863284 L -93.47367438445403 -143.9368362236334 L -90.88115381599464 -145.44024849082706 L -88.26465008771054 -146.8970461578245 L -85.62499999999999 -148.30685039808512 L -82.96304626465442 -149.66929738422908 L -80.27963723638733 -150.9840383788765 L -77.57562664299505 -152.25073982068736 L -74.85187331423496 -153.46908340558278 L -72.10924090950684 -154.6387661631284 L -69.34859764442393 -155.75950052806346 L -66.57081601636001 -156.83101440695953 L -63.77677252905902 -157.85305123999555 L -60.967347416394205 -158.82537005783644 L -58.14342436536368 -159.74774553360444 L -55.305890238409496 -160.61996802993394 L -52.45563479514732 -161.4418436411023 L -49.59355041359422 -162.21319423022987 L -46.720531810981356 -162.93385746154505 L -43.83747576423945 -163.60368682771096 L -40.94528083024376 -164.2225516722124 L -38.04484706590617 -164.79033720680292 L -35.137075748201326 -165.30694452401315 L -32.222869094214005 -165.77229060472425 L -29.303129981294493 -166.1863083208101 L -26.37876166740893 -166.5489464328551 L -23.450667511771027 -166.8601695829546 L -20.519750695841708 -167.1199582826076 L -17.586913944782697 -167.32830889571198 L -14.65305924945003 -167.48523361667472 L -11.71908758901305 -167.59076044365045 L -8.785898654284196 -167.64493314692407 L -5.8543905718445375 -167.6478112324533 L -2.925459629049649 -167.5994699005901 L 0 -167.5 L 2.9210965274403278 -167.349507976801 L 5.836940823493287 -167.14811581894378 L 8.746646687101988 -166.89596099585816 L 11.649331115268925 -166.59319639339063 L 14.544114571015456 -166.23999024406004 L 17.430121249881218 -165.83652605265956 L 20.3064793448827 -165.38300251723527 L 23.172321309850897 -164.87963344547146 L 26.02678412106841 -164.32664766651604 L 28.869009537127166 -163.72428893827959 L 31.698144356928506 -163.0728158502432 L 34.513340675748054 -162.37250172181174 L 37.31375613928861 -161.6236344962509 L 40.09855419564493 -160.8265166302464 L 42.866904345105 -159.98146497912694 L 45.61798238771336 -159.08881067779177 L 48.35097066852259 -158.14889901738698 L 51.065058320460054 -157.16208931777413 L 53.759441504738 -156.12875479583718 L 56.43332364873534 -155.0492824296749 L 59.085915681281385 -153.92407281872613 L 61.716436265271504 -152.75354003987823 L 64.32411202754669 -151.538111499608 L 66.90817778596913 -150.27822778220784 L 69.46787677362747 -148.97434249414934 L 72.00246086010597 -147.6269221046382 L 74.51119076975311 -146.23644578241587 L 76.9933362968861 -144.80340522886402 L 79.44817651786849 -143.3283045074685 L 81.87499999999999 -141.81165986970183 L 84.27310500715761 -140.25399957738313 L 86.641799702129 -138.65586372157566 L 88.98040234558005 -137.01780403808365 L 91.28824149159944 -135.34038371961054 L 93.56465617976438 -133.62417722464178 L 95.80899612367313 -131.86977008311644 L 98.02062189588986 -130.0777586989528 L 100.19890510925089 -128.248750149494 L 102.34322859447981 -126.3833619819399 L 104.45298657406263 -124.48222200683392 L 106.52758483233362 -122.54596808867261 L 108.56644088172474 -120.57524793370722 L 110.56898412513256 -118.57071887500801 L 112.53465601435755 -116.53304765486149 L 114.46291020457237 -114.4629102045724 L 116.35321270477684 -112.36099142174281 L 118.20504202419842 -110.22798494510131 L 120.01788931459917 -108.06459292695561 L 121.79125850844983 -105.87152580334312 L 123.52466645293521 -103.64950206195448 L 125.21764303975444 -101.39924800790507 L 126.86973133068224 -99.12149752743099 L 128.48048767885822 -96.81699184958576 L 130.0494818457728 -94.48647930601506 L 131.5762971139193 -92.13071508888677 A 15 15 0 0 0 155.12691838722782 -108.62103763397934 L 155.12691838722782 -108.62103763397934 L 153.1064661854588 -111.23835899635054 L 151.04194083769426 -113.81826625363112 L 148.93403243167046 -116.36001883654941 L 146.78344347018538 -118.86288885953806 L 144.5908886387071 -121.32616132833431 L 142.35709456952037 -123.74913434333443 L 140.08279960248882 -126.13111929864478 L 137.76875354251123 -128.47144107677315 L 135.41571741375108 -130.76943823890625 L 133.02446321071923 -133.02446321071926 L 130.5957736462915 -135.23588246366643 L 128.1304418967419 -137.40307669170164 L 125.62927134387563 -139.52544098338078 L 123.09307531434393 -141.6023849892976 L 120.52267681622611 -143.63333308480838 L 117.91890827296328 -145.6177245279999 L 115.28261125472952 -147.5550136128587 L 112.61463620732704 -149.44466981759967 L 109.91584217869247 -151.28617794811518 L 107.18709654310173 -153.07903827650534 L 104.42927472316198 -154.82276667465402 L 101.64325990967943 -156.51689474281477 L 98.82994277949271 -158.16096993317345 L 95.99022121136134 -159.75455566835618 L 93.12499999999999 -161.2972314548517 L 90.23519056834948 -162.78859299132003 L 87.32171067817569 -164.22825227176043 L 84.38548413908825 -165.6158376835129 L 81.42744051607113 -166.9509941000703 L 78.44851483561733 -168.23338296867814 L 75.44964729056093 -169.46268239270245 L 72.43178294369912 -170.63858720874615 L 69.3958714302977 -171.76080905849736 L 66.34286665957372 -172.82907645529448 L 63.27372651524871 -173.84313484539305 L 60.18941255526685 -174.8027466639237 L 57.090889710771535 -175.7076913855296 L 53.97912598443528 -176.5577655696754 L 50.855092148236345 -177.35278290061984 L 47.71976144077726 -178.09257422204698 L 44.57410926423878 -178.77698756635235 L 41.419112881064144 -179.40588817858145 L 38.25575111046772 -179.97915853502025 L 35.08500402486217 -180.49669835643923 L 31.907852646298448 -180.95842461599324 L 28.725278643012395 -181.36427154178216 L 25.53826402617201 -181.71419061407815 L 22.34779084691892 -182.00815055722742 L 19.1548408937975 -182.24613732623607 L 15.960395390664901 -182.42815408805092 L 12.76543469517493 -182.55422119754783 L 9.570937997928354 -182.6243761682427 L 6.377883022382052 -182.63867363773974 L 3.1872457256089013 -182.59718532793596 L 0 -182.5 L -3.18288262399958 -182.34722340414686 L -6.360433274030802 -182.13897822423021 L -9.531686030746146 -181.87540401717675 L -12.695678221430805 -181.556657147288 L -15.85145071223033 -181.1829107154362 L -18.99804819889602 -180.75435448318368 L -22.13451949595991 -180.2711947918551 L -25.259917824251875 -179.733654476595 L -28.373301096671874 -179.14197277544312 L -31.47373220213112 -178.4964052334627 L -34.56027928757668 -177.79722360195814 L -37.63201603801444 -177.04471573281882 L -40.68802195444658 -176.23918546802943 L -43.72738262963994 -175.38095252438637 L -46.74919002164281 -174.47035237346296 L -49.75254272496835 -173.50773611686657 L -52.73654623936365 -172.49347035683252 L -55.70031323608427 -171.42793706220144 L -58.64296382159535 -170.31153342982694 L -61.56362579862037 -169.14467174146353 L -64.46143492446089 -167.92777921618418 L -67.33553516651018 -166.66129785838004 L -70.1850789548858 -165.3456843013946 L -73.00922743210614 -163.98140964684686 L -75.80715069973796 -162.5689592996991 L -78.57802806194212 -161.10883279912568 L -81.32104826584631 -159.6015436452414 L -84.03540973867446 -158.04761912174794 L -86.72032082156355 -156.4476001145594 L -89.37499999999999 -154.8020409264684 L -91.99867613080842 -153.1115090879148 L -94.59058866562708 -151.37658516392204 L -97.14998787080546 -149.59786255726502 L -99.67613504366064 -147.77594730793618 L -102.16830272503007 -145.91145788897666 L -104.62577490806022 -144.00502499874065 L -107.04784724317058 -142.05729134966222 L -109.43382723913577 -140.0689114535948 L -111.78303446022737 -138.04055140379447 L -114.09480071936072 -135.9728886536186 L -116.36847026719123 -133.8666117920142 L -118.60339997710763 -131.72242031586813 L -120.79895952607005 -129.54102439929557 L -122.95453157124251 -127.32314465994126 L -125.06951192237058 -125.06951192237061 L -127.1433097098566 -122.78086697862777 L -129.17534754848597 -120.45796034603879 L -131.1650616967601 -118.10155202233848 L -133.1119022117914 -115.71241123820072 L -135.01533309971987 -113.29131620725256 L -136.874832461609 -110.83905387365263 L -138.68989263478306 -108.35641965731585 L -140.4600203295676 -105.8442171968665 L -142.184736761397 -103.30325809040215 L -143.86357777825418 -100.73436163415246 L -145.49609398340982 -98.13835455911607 L -147.08185085342873 -95.51607076576038 L -148.62042885141366 -92.86835105686916 L -150.11142353545742 -90.19604286862324 " fill="white" stroke-width="1" stroke="white"></path></g></g></svg>