<?xml version="1.0" encoding="UTF-8"?><svg width="60mm" height="60mm" viewBox="-300 -300 600 600"><g id="RMICompass" viewBox="-300 -300 600 600"><circle r="300" fill-opacity="1" x="0" y="0"></circle><rect height="50" width="8" x="0" y="0" fill="white" stroke="white" transform="translate(-4,-300) rotate(0,4,300)"></rect><rect height="50" width="8" x="0" y="0" fill="white" stroke="white" transform="translate(-4,-300) rotate(30,4,300)"></rect><rect height="50" width="8" x="0" y="0" fill="white" stroke="white" transform="translate(-4,-300) rotate(60,4,300)"></rect><rect height="50" width="8" x="0" y="0" fill="white" stroke="white" transform="translate(-4,-300) rotate(90,4,300)"></rect><rect height="50" width="8" x="0" y="0" fill="white" stroke="white" transform="translate(-4,-300) rotate(120,4,300)"></rect><rect height="50" width="8" x="0" y="0" fill="white" stroke="white" transform="translate(-4,-300) rotate(150,4,300)"></rect><rect height="50" width="8" x="0" y="0" fill="white" stroke="white" transform="translate(-4,-300) rotate(180,4,300)"></rect><rect height="50" width="8" x="0" y="0" fill="white" stroke="white" transform="translate(-4,-300) rotate(210,4,300)"></rect><rect height="50" width="8" x="0" y="0" fill="white" stroke="white" transform="translate(-4,-300) rotate(240,4,300)"></rect><rect height="50" width="8" x="0" y="0" fill="white" stroke="white" transform="translate(-4,-300) rotate(270,4,300)"></rect><rect height="50" width="8" x="0" y="0" fill="white" stroke="white" transform="translate(-4,-300) rotate(300,4,300)"></rect><rect height="50" width="8" x="0" y="0" fill="white" stroke="white" transform="translate(-4,-300) rotate(330,4,300)"></rect><rect height="40" width="5" x="0" y="0" fill="white" stroke="white" transform="translate(-2.5,-300) rotate(10,2.5,300)"></rect><rect height="40" width="5" x="0" y="0" fill="white" stroke="white" transform="translate(-2.5,-300) rotate(20,2.5,300)"></rect><rect height="40" width="5" x="0" y="0" fill="white" stroke="white" transform="translate(-2.5,-300) rotate(40,2.5,300)"></rect><rect height="40" width="5" x="0" y="0" fill="white" stroke="white" transform="translate(-2.5,-300) rotate(50,2.5,300)"></rect><rect height="40" width="5" x="0" y="0" fill="white" stroke="white" transform="translate(-2.5,-300) rotate(70,2.5,300)"></rect><rect height="40" width="5" x="0" y="0" fill="white" stroke="white" transform="translate(-2.5,-300) rotate(80,2.5,300)"></rect><rect height="40" width="5" x="0" y="0" fill="white" stroke="white" transform="translate(-2.5,-300) rotate(100,2.5,300)"></rect><rect height="40" width="5" x="0" y="0" fill="white" stroke="white" transform="translate(-2.5,-300) rotate(110,2.5,300)"></rect><rect height="40" width="5" x="0" y="0" fill="white" stroke="white" transform="translate(-2.5,-300) rotate(130,2.5,300)"></rect><rect height="40" width="5" x="0" y="0" fill="white" stroke="white" transform="translate(-2.5,-300) rotate(140,2.5,300)"></rect><rect height="40" width="5" x="0" y="0" fill="white" stroke="white" transform="translate(-2.5,-300) rotate(160,2.5,300)"></rect><rect height="40" width="5" x="0" y="0" fill="white" stroke="white" transform="translate(-2.5,-300) rotate(170,2.5,300)"></rect><rect height="40" width="5" x="0" y="0" fill="white" stroke="white" transform="translate(-2.5,-300) rotate(190,2.5,300)"></rect><rect height="40" width="5" x="0" y="0" fill="white" stroke="white" transform="translate(-2.5,-300) rotate(200,2.5,300)"></rect><rect height="40" width="5" x="0" y="0" fill="white" stroke="white" transform="translate(-2.5,-300) rotate(220,2.5,300)"></rect><rect height="40" width="5" x="0" y="0" fill="white" stroke="white" transform="translate(-2.5,-300) rotate(230,2.5,300)"></rect><rect height="40" width="5" x="0" y="0" fill="white" stroke="white" transform="translate(-2.5,-300) rotate(250,2.5,300)"></rect><rect height="40" width="5" x="0" y="0" fill="white" stroke="white" transform="translate(-2.5,-300) rotate(260,2.5,300)"></rect><rect height="40" width="5" x="0" y="0" fill="white" stroke="white" transform="translate(-2.5,-300) rotate(280,2.5,300)"></rect><rect height="40" width="5" x="0" y="0" fill="white" stroke="white" transform="translate(-2.5,-300) rotate(290,2.5,300)"></rect><rect height="40" width="5" x="0" y="0" fill="white" stroke="white" transform="translate(-2.5,-300) rotate(310,2.5,300)"></rect><rect height="40" width="5" x="0" y="0" fill="white" stroke="white" transform="translate(-2.5,-300) rotate(320,2.5,300)"></rect><rect height="40" width="5" x="0" y="0" fill="white" stroke="white" transform="translate(-2.5,-300) rotate(340,2.5,300)"></rect><rect height="40" width="5" x="0" y="0" fill="white" stroke="white" transform="translate(-2.5,-300) rotate(350,2.5,300)"></rect><rect height="20" width="5" x="0" y="0" fill="white" stroke="white" transform="translate(-2.5,-300) rotate(5,2.5,300)"></rect><rect height="20" width="5" x="0" y="0" fill="white" stroke="white" transform="translate(-2.5,-300) rotate(15,2.5,300)"></rect><rect height="20" width="5" x="0" y="0" fill="white" stroke="white" transform="translate(-2.5,-300) rotate(25,2.5,300)"></rect><rect height="20" width="5" x="0" y="0" fill="white" stroke="white" transform="translate(-2.5,-300) rotate(35,2.5,300)"></rect><rect height="20" width="5" x="0" y="0" fill="white" stroke="white" transform="translate(-2.5,-300) rotate(45,2.5,300)"></rect><rect height="20" width="5" x="0" y="0" fill="white" stroke="white" transform="translate(-2.5,-300) rotate(55,2.5,300)"></rect><rect height="20" width="5" x="0" y="0" fill="white" stroke="white" transform="translate(-2.5,-300) rotate(65,2.5,300)"></rect><rect height="20" width="5" x="0" y="0" fill="white" stroke="white" transform="translate(-2.5,-300) rotate(75,2.5,300)"></rect><rect height="20" width="5" x="0" y="0" fill="white" stroke="white" transform="translate(-2.5,-300) rotate(85,2.5,300)"></rect><rect height="20" width="5" x="0" y="0" fill="white" stroke="white" transform="translate(-2.5,-300) rotate(95,2.5,300)"></rect><rect height="20" width="5" x="0" y="0" fill="white" stroke="white" transform="translate(-2.5,-300) rotate(105,2.5,300)"></rect><rect height="20" width="5" x="0" y="0" fill="white" stroke="white" transform="translate(-2.5,-300) rotate(115,2.5,300)"></rect><rect height="20" width="5" x="0" y="0" fill="white" stroke="white" transform="translate(-2.5,-300) rotate(125,2.5,300)"></rect><rect height="20" width="5" x="0" y="0" fill="white" stroke="white" transform="translate(-2.5,-300) rotate(135,2.5,300)"></rect><rect height="20" width="5" x="0" y="0" fill="white" stroke="white" transform="translate(-2.5,-300) rotate(145,2.5,300)"></rect><rect height="20" width="5" x="0" y="0" fill="white" stroke="white" transform="translate(-2.5,-300) rotate(155,2.5,300)"></rect><rect height="20" width="5" x="0" y="0" fill="white" stroke="white" transform="translate(-2.5,-300) rotate(165,2.5,300)"></rect><rect height="20" width="5" x="0" y="0" fill="white" stroke="white" transform="translate(-2.5,-300) rotate(175,2.5,300)"></rect><rect height="20" width="5" x="0" y="0" fill="white" stroke="white" transform="translate(-2.5,-300) rotate(185,2.5,300)"></rect><rect height="20" width="5" x="0" y="0" fill="white" stroke="white" transform="translate(-2.5,-300) rotate(195,2.5,300)"></rect><rect height="20" width="5" x="0" y="0" fill="white" stroke="white" transform="translate(-2.5,-300) rotate(205,2.5,300)"></rect><rect height="20" width="5" x="0" y="0" fill="white" stroke="white" transform="translate(-2.5,-300) rotate(215,2.5,300)"></rect><rect height="20" width="5" x="0" y="0" fill="white" stroke="white" transform="translate(-2.5,-300) rotate(225,2.5,300)"></rect><rect height="20" width="5" x="0" y="0" fill="white" stroke="white" transform="translate(-2.5,-300) rotate(235,2.5,300)"></rect><rect height="20" width="5" x="0" y="0" fill="white" stroke="white" transform="translate(-2.5,-300) rotate(245,2.5,300)"></rect><rect height="20" width="5" x="0" y="0" fill="white" stroke="white" transform="translate(-2.5,-300) rotate(255,2.5,300)"></rect><rect height="20" width="5" x="0" y="0" fill="white" stroke="white" transform="translate(-2.5,-300) rotate(265,2.5,300)"></rect><rect height="20" width="5" x="0" y="0" fill="white" stroke="white" transform="translate(-2.5,-300) rotate(275,2.5,300)"></rect><rect height="20" width="5" x="0" y="0" fill="white" stroke="white" transform="translate(-2.5,-300) rotate(285,2.5,300)"></rect><rect height="20" width="5" x="0" y="0" fill="white" stroke="white" transform="translate(-2.5,-300) rotate(295,2.5,300)"></rect><rect height="20" width="5" x="0" y="0" fill="white" stroke="white" transform="translate(-2.5,-300) rotate(305,2.5,300)"></rect><rect height="20" width="5" x="0" y="0" fill="white" stroke="white" transform="translate(-2.5,-300) rotate(315,2.5,300)"></rect><rect height="20" width="5" x="0" y="0" fill="white" stroke="white" transform="translate(-2.5,-300) rotate(325,2.5,300)"></rect><rect height="20" width="5" x="0" y="0" fill="white" stroke="white" transform="translate(-2.5,-300) rotate(335,2.5,300)"></rect><rect height="20" width="5" x="0" y="0" fill="white" stroke="white" transform="translate(-2.5,-300) rotate(345,2.5,300)"></rect><rect height="20" width="5" x="0" y="0" fill="white" stroke="white" transform="translate(-2.5,-300) rotate(355,2.5,300)"></rect><text fill="white" font-family="lenya69" font-size="80" x="0" y="0" stroke="white" dominant-baseline="middle" text-anchor="middle" transform="translate(0,-210) rotate(0,0,210)">ะก</text><text fill="white" font-family="lenya69" font-size="80" x="0" y="0" stroke="white" dominant-baseline="middle" text-anchor="middle" transform="translate(0,-210) rotate(30,0,210)">3</text><text fill="white" font-family="lenya69" font-size="80" x="0" y="0" stroke="white" dominant-baseline="middle" text-anchor="middle" transform="translate(0,-210) rotate(60,0,210)">6</text><text fill="white" font-family="lenya69" font-size="80" x="0" y="0" stroke="white" dominant-baseline="middle" text-anchor="middle" transform="translate(0,-210) rotate(90,0,210)">9</text><text fill="white" font-family="lenya69" font-size="80" x="0" y="0" stroke="white" dominant-baseline="middle" text-anchor="middle" transform="translate(0,-210) rotate(120,0,210)">12</text><text fill="white" font-family="lenya69" font-size="80" x="0" y="0" stroke="white" dominant-baseline="middle" text-anchor="middle" transform="translate(0,-210) rotate(150,0,210)">15</text><text fill="white" font-family="lenya69" font-size="80" x="0" y="0" stroke="white" dominant-baseline="middle" text-anchor="middle" transform="translate(0,-210) rotate(180,0,210)">18</text><text fill="white" font-family="lenya69" font-size="80" x="0" y="0" stroke="white" dominant-baseline="middle" text-anchor="middle" transform="translate(0,-210) rotate(210,0,210)">21</text><text fill="white" font-family="lenya69" font-size="80" x="0" y="0" stroke="white" dominant-baseline="middle" text-anchor="middle" transform="translate(0,-210) rotate(240,0,210)">24</text><text fill="white" font-family="lenya69" font-size="80" x="0" y="0" stroke="white" dominant-baseline="middle" text-anchor="middle" transform="translate(0,-210) rotate(270,0,210)">27</text><text fill="white" font-family="lenya69" font-size="80" x="0" y="0" stroke="white" dominant-baseline="middle" text-anchor="middle" transform="translate(0,-210) rotate(300,0,210)">30</text><text fill="white" font-family="lenya69" font-size="80" x="0" y="0" stroke="white" dominant-baseline="middle" text-anchor="middle" transform="translate(0,-210) rotate(330,0,210)">33</text></g></svg>