<?xml version="1.0" encoding="UTF-8"?><svg width="74mm" height="74mm" viewBox="-370 -370 740 740"><g id="RMIFace" viewBox="-370 -370 740 740"><circle r="370" fill-opacity="1" x="0" y="0"></circle><rect height="60" width="5" x="0" y="0" fill="orange" stroke="orange" transform="translate(-2.5,-345) rotate(0,2.5,345)"></rect><rect height="60" width="5" x="0" y="0" fill="orange" stroke="orange" transform="translate(-2.5,-345) rotate(30,2.5,345)"></rect><rect height="60" width="5" x="0" y="0" fill="orange" stroke="orange" transform="translate(-2.5,-345) rotate(60,2.5,345)"></rect><rect height="60" width="5" x="0" y="0" fill="orange" stroke="orange" transform="translate(-2.5,-345) rotate(90,2.5,345)"></rect><rect height="60" width="5" x="0" y="0" fill="orange" stroke="orange" transform="translate(-2.5,-345) rotate(120,2.5,345)"></rect><rect height="60" width="5" x="0" y="0" fill="orange" stroke="orange" transform="translate(-2.5,-345) rotate(150,2.5,345)"></rect><rect height="60" width="5" x="0" y="0" fill="orange" stroke="orange" transform="translate(-2.5,-345) rotate(180,2.5,345)"></rect><rect height="60" width="5" x="0" y="0" fill="orange" stroke="orange" transform="translate(-2.5,-345) rotate(210,2.5,345)"></rect><rect height="60" width="5" x="0" y="0" fill="orange" stroke="orange" transform="translate(-2.5,-345) rotate(240,2.5,345)"></rect><rect height="60" width="5" x="0" y="0" fill="orange" stroke="orange" transform="translate(-2.5,-345) rotate(270,2.5,345)"></rect><rect height="60" width="5" x="0" y="0" fill="orange" stroke="orange" transform="translate(-2.5,-345) rotate(300,2.5,345)"></rect><rect height="60" width="5" x="0" y="0" fill="orange" stroke="orange" transform="translate(-2.5,-345) rotate(330,2.5,345)"></rect><g transform="rotate(0,0,0)"></g><g transform="translate(-30,-300)"></g><g transform="translate(-50,-300)"></g><path d="M 0 0 L 38.5 -66.68395609140177 L -38.5 -66.68395609140177 Z" fill="white" transform="translate(0,-300)"></path><text fill="orange" font-family="lenya69" font-size="50" x="0" y="0" stroke="orange" dominant-baseline="middle" text-anchor="middle" transform="translate(272.7980021920982,-187.50000000000003)" font-weight="bold">6</text><text fill="orange" font-family="lenya69" font-size="50" x="0" y="0" stroke="orange" dominant-baseline="middle" text-anchor="middle" transform="translate(-272.7980021920982,-187.50000000000003)" font-weight="bold">30</text><text fill="orange" font-family="lenya69" font-size="50" x="0" y="0" stroke="orange" dominant-baseline="middle" text-anchor="middle" transform="translate(298.77876430563134,142.49999999999991)" font-weight="bold">12</text><text fill="orange" font-family="lenya69" font-size="50" x="0" y="0" stroke="orange" dominant-baseline="middle" text-anchor="middle" transform="translate(-298.7787643056313,142.50000000000014)" font-weight="bold">24</text></g></svg>