<?xml version="1.0" encoding="UTF-8"?><svg width="80mm" height="80mm" viewBox="-400 -400 800 800"><g id="US2" viewBox="-400 -400 800 800"><circle r="400" x="0" y="0"></circle><circle r="370" x="0" y="0"></circle><text fill="white" font-family="lenya69" font-size="50" x="-125" y="-60" stroke="white" textLength="250" lengthAdjust="spacingAndGlyphs" letter-spacing="-3">СКОРОСТЬ</text><text fill="white" font-family="lenya69" font-size="100" x="0" y="0" stroke="white" dominant-baseline="middle" text-anchor="middle" transform="translate(68.91827742945162,-219.89186813838617)" font-weight="bold">1</text><text fill="white" font-family="lenya69" font-size="100" x="0" y="0" stroke="white" dominant-baseline="middle" text-anchor="middle" transform="translate(239.84587384858142,1.4001861758309495)" font-weight="bold">2</text><text fill="white" font-family="lenya69" font-size="100" x="0" y="0" stroke="white" dominant-baseline="middle" text-anchor="middle" transform="translate(143.08946329258598,202.67954093426653)" font-weight="bold">3</text><text fill="white" font-family="lenya69" font-size="100" x="0" y="0" stroke="white" dominant-baseline="middle" text-anchor="middle" transform="translate(-43.41741378256775,246.0400986706142)" font-weight="bold">4</text><text fill="white" font-family="lenya69" font-size="100" x="0" y="0" stroke="white" dominant-baseline="middle" text-anchor="middle" transform="translate(-189.0725309067962,157.82279275030152)" font-weight="bold">5</text><text fill="white" font-family="lenya69" font-size="100" x="0" y="0" stroke="white" dominant-baseline="middle" text-anchor="middle" transform="translate(-239.99492980604913,11.560021599065735)" font-weight="bold">6</text><text fill="white" font-family="lenya69" font-size="100" x="0" y="0" stroke="white" dominant-baseline="middle" text-anchor="middle" transform="translate(-198.27376770327692,-125.2313315794346)" font-weight="bold">7</text><text fill="white" font-family="lenya69" font-size="100" x="0" y="0" stroke="white" dominant-baseline="middle" text-anchor="middle" transform="translate(-95.32748331425432,-210.25592142998235)" font-weight="bold">8</text><rect height="60" width="10" x="0" y="0" fill="white" stroke="white" transform="translate(-5,-340) rotate(16.687974974286988,5,340)"></rect><rect height="30" width="5" x="0" y="0" fill="white" stroke="white" transform="translate(-2.5,-340) rotate(24.989230471839136,2.5,340)"></rect><rect height="30" width="5" x="0" y="0" fill="white" stroke="white" transform="translate(-2.5,-340) rotate(32.951225667646554,2.5,340)"></rect><rect height="30" width="5" x="0" y="0" fill="white" stroke="white" transform="translate(-2.5,-340) rotate(40.612440278346355,2.5,340)"></rect><rect height="30" width="5" x="0" y="0" fill="white" stroke="white" transform="translate(-2.5,-340) rotate(48.00458710770286,2.5,340)"></rect><rect height="60" width="5" x="0" y="0" fill="white" stroke="white" transform="translate(-2.5,-340) rotate(55.15416940398862,2.5,340)"></rect><rect height="30" width="5" x="0" y="0" fill="white" stroke="white" transform="translate(-2.5,-340) rotate(62.08360562521432,2.5,340)"></rect><rect height="30" width="5" x="0" y="0" fill="white" stroke="white" transform="translate(-2.5,-340) rotate(68.81205999697755,2.5,340)"></rect><rect height="30" width="5" x="0" y="0" fill="white" stroke="white" transform="translate(-2.5,-340) rotate(75.35606778720594,2.5,340)"></rect><rect height="30" width="5" x="0" y="0" fill="white" stroke="white" transform="translate(-2.5,-340) rotate(81.73001410241093,2.5,340)"></rect><rect height="60" width="10" x="0" y="0" fill="white" stroke="white" transform="translate(-5,-340) rotate(87.946506082172,5,340)"></rect><rect height="30" width="5" x="0" y="0" fill="white" stroke="white" transform="translate(-2.5,-340) rotate(94.0166661406056,2.5,340)"></rect><rect height="30" width="5" x="0" y="0" fill="white" stroke="white" transform="translate(-2.5,-340) rotate(99.95036580823523,2.5,340)"></rect><rect height="30" width="5" x="0" y="0" fill="white" stroke="white" transform="translate(-2.5,-340) rotate(105.75641424996809,2.5,340)"></rect><rect height="30" width="5" x="0" y="0" fill="white" stroke="white" transform="translate(-2.5,-340) rotate(111.44271175498574,2.5,340)"></rect><rect height="60" width="5" x="0" y="0" fill="white" stroke="white" transform="translate(-2.5,-340) rotate(117.01637583942835,2.5,340)"></rect><rect height="30" width="5" x="0" y="0" fill="white" stroke="white" transform="translate(-2.5,-340) rotate(122.48384570775869,2.5,340)"></rect><rect height="30" width="5" x="0" y="0" fill="white" stroke="white" transform="translate(-2.5,-340) rotate(127.85096944613093,2.5,340)"></rect><rect height="30" width="5" x="0" y="0" fill="white" stroke="white" transform="translate(-2.5,-340) rotate(133.12307731349,2.5,340)"></rect><rect height="30" width="5" x="0" y="0" fill="white" stroke="white" transform="translate(-2.5,-340) rotate(138.30504374726019,2.5,340)"></rect><rect height="60" width="10" x="0" y="0" fill="white" stroke="white" transform="translate(-5,-340) rotate(143.40134013753038,5,340)"></rect><rect height="30" width="5" x="0" y="0" fill="white" stroke="white" transform="translate(-2.5,-340) rotate(148.4160799959701,2.5,340)"></rect><rect height="30" width="5" x="0" y="0" fill="white" stroke="white" transform="translate(-2.5,-340) rotate(153.35305781761213,2.5,340)"></rect><rect height="30" width="5" x="0" y="0" fill="white" stroke="white" transform="translate(-2.5,-340) rotate(158.21578267962678,2.5,340)"></rect><rect height="30" width="5" x="0" y="0" fill="white" stroke="white" transform="translate(-2.5,-340) rotate(163.0075074228808,2.5,340)"></rect><rect height="60" width="5" x="0" y="0" fill="white" stroke="white" transform="translate(-2.5,-340) rotate(167.73125410598294,2.5,340)"></rect><rect height="30" width="5" x="0" y="0" fill="white" stroke="white" transform="translate(-2.5,-340) rotate(172.38983629774992,2.5,340)"></rect><rect height="30" width="5" x="0" y="0" fill="white" stroke="white" transform="translate(-2.5,-340) rotate(176.9858786751991,2.5,340)"></rect><rect height="30" width="5" x="0" y="0" fill="white" stroke="white" transform="translate(-2.5,-340) rotate(181.52183431474066,2.5,340)"></rect><rect height="30" width="5" x="0" y="0" fill="white" stroke="white" transform="translate(-2.5,-340) rotate(186,2.5,340)"></rect><rect height="60" width="10" x="0" y="0" fill="white" stroke="white" transform="translate(-5,-340) rotate(190.42252981743525,5,340)"></rect><rect height="30" width="5" x="0" y="0" fill="white" stroke="white" transform="translate(-2.5,-340) rotate(194.79144726816168,2.5,340)"></rect><rect height="30" width="5" x="0" y="0" fill="white" stroke="white" transform="translate(-2.5,-340) rotate(199.10865608923342,2.5,340)"></rect><rect height="30" width="5" x="0" y="0" fill="white" stroke="white" transform="translate(-2.5,-340) rotate(203.37594994857398,2.5,340)"></rect><rect height="30" width="5" x="0" y="0" fill="white" stroke="white" transform="translate(-2.5,-340) rotate(207.59502115361641,2.5,340)"></rect><rect height="60" width="5" x="0" y="0" fill="white" stroke="white" transform="translate(-2.5,-340) rotate(211.76746849358443,2.5,340)"></rect><rect height="30" width="5" x="0" y="0" fill="white" stroke="white" transform="translate(-2.5,-340) rotate(215.89480431848267,2.5,340)"></rect><rect height="30" width="5" x="0" y="0" fill="white" stroke="white" transform="translate(-2.5,-340) rotate(219.97846094367827,2.5,340)"></rect><rect height="30" width="5" x="0" y="0" fill="white" stroke="white" transform="translate(-2.5,-340) rotate(224.0197964569801,2.5,340)"></rect><rect height="30" width="5" x="0" y="0" fill="white" stroke="white" transform="translate(-2.5,-340) rotate(228.0200999949626,2.5,340)"></rect><rect height="60" width="10" x="0" y="0" fill="white" stroke="white" transform="translate(-5,-340) rotate(231.98059654664922,5,340)"></rect><rect height="30" width="5" x="0" y="0" fill="white" stroke="white" transform="translate(-2.5,-340) rotate(235.9024513352931,2.5,340)"></rect><rect height="30" width="5" x="0" y="0" fill="white" stroke="white" transform="translate(-2.5,-340) rotate(239.78677382267966,2.5,340)"></rect><rect height="30" width="5" x="0" y="0" fill="white" stroke="white" transform="translate(-2.5,-340) rotate(243.63462137495213,2.5,340)"></rect><rect height="30" width="5" x="0" y="0" fill="white" stroke="white" transform="translate(-2.5,-340) rotate(247.4470026242853,2.5,340)"></rect><rect height="60" width="5" x="0" y="0" fill="white" stroke="white" transform="translate(-2.5,-340) rotate(251.2248805566927,2.5,340)"></rect><rect height="30" width="5" x="0" y="0" fill="white" stroke="white" transform="translate(-2.5,-340) rotate(254.9691753527543,2.5,340)"></rect><rect height="30" width="5" x="0" y="0" fill="white" stroke="white" transform="translate(-2.5,-340) rotate(258.68076700500575,2.5,340)"></rect><rect height="30" width="5" x="0" y="0" fill="white" stroke="white" transform="translate(-2.5,-340) rotate(262.36049773308383,2.5,340)"></rect><rect height="30" width="5" x="0" y="0" fill="white" stroke="white" transform="translate(-2.5,-340) rotate(266.0091742154057,2.5,340)"></rect><rect height="60" width="10" x="0" y="0" fill="white" stroke="white" transform="translate(-5,-340) rotate(269.6275696541335,5,340)"></rect><rect height="30" width="5" x="0" y="0" fill="white" stroke="white" transform="translate(-2.5,-340) rotate(273.2164256883989,2.5,340)"></rect><rect height="30" width="5" x="0" y="0" fill="white" stroke="white" transform="translate(-2.5,-340) rotate(276.7764541691963,2.5,340)"></rect><rect height="30" width="5" x="0" y="0" fill="white" stroke="white" transform="translate(-2.5,-340) rotate(280.30833880797724,2.5,340)"></rect><rect height="30" width="5" x="0" y="0" fill="white" stroke="white" transform="translate(-2.5,-340) rotate(283.81273670975787,2.5,340)"></rect><rect height="60" width="5" x="0" y="0" fill="white" stroke="white" transform="translate(-2.5,-340) rotate(287.29027980047863,2.5,340)"></rect><rect height="30" width="5" x="0" y="0" fill="white" stroke="white" transform="translate(-2.5,-340) rotate(290.7415761573944,2.5,340)"></rect><rect height="30" width="5" x="0" y="0" fill="white" stroke="white" transform="translate(-2.5,-340) rotate(294.16721125042864,2.5,340)"></rect><rect height="30" width="5" x="0" y="0" fill="white" stroke="white" transform="translate(-2.5,-340) rotate(297.5677491016677,2.5,340)"></rect><rect height="30" width="5" x="0" y="0" fill="white" stroke="white" transform="translate(-2.5,-340) rotate(300.9437333694971,2.5,340)"></rect><rect height="60" width="10" x="0" y="0" fill="white" stroke="white" transform="translate(-5,-340) rotate(304.2956883632826,5,340)"></rect><rect height="30" width="5" x="0" y="0" fill="white" stroke="white" transform="translate(-2.5,-340) rotate(307.6241199939551,2.5,340)"></rect><rect height="30" width="5" x="0" y="0" fill="white" stroke="white" transform="translate(-2.5,-340) rotate(310.92951666538414,2.5,340)"></rect><rect height="30" width="5" x="0" y="0" fill="white" stroke="white" transform="translate(-2.5,-340) rotate(314.21235011098184,2.5,340)"></rect><rect height="30" width="5" x="0" y="0" fill="white" stroke="white" transform="translate(-2.5,-340) rotate(317.47307617959785,2.5,340)"></rect><rect height="60" width="5" x="0" y="0" fill="white" stroke="white" transform="translate(-2.5,-340) rotate(320.7121355744119,2.5,340)"></rect><rect height="30" width="5" x="0" y="0" fill="white" stroke="white" transform="translate(-2.5,-340) rotate(323.9299545482133,2.5,340)"></rect><rect height="30" width="5" x="0" y="0" fill="white" stroke="white" transform="translate(-2.5,-340) rotate(327.1269455581743,2.5,340)"></rect><rect height="30" width="5" x="0" y="0" fill="white" stroke="white" transform="translate(-2.5,-340) rotate(330.303507882965,2.5,340)"></rect><rect height="30" width="5" x="0" y="0" fill="white" stroke="white" transform="translate(-2.5,-340) rotate(333.46002820482187,2.5,340)"></rect><rect height="60" width="10" x="0" y="0" fill="white" stroke="white" transform="translate(-5,-340) rotate(336.5968811589744,5,340)"></rect><g transform="rotate(226)"></g><circle r="30" fill="red" cy="-365" cx="-375" fill-opacity="1"></circle><circle r="30" fill="red" cy="365" cx="-375" fill-opacity="1"></circle><circle r="30" fill="red" cy="-365" cx="375" fill-opacity="1"></circle><circle r="30" fill="red" cy="365" cx="375" fill-opacity="1"></circle></g></svg>